<?xml version="1.0" encoding="UTF-8" ?>
<!DOCTYPE svg PUBLIC "-//W3C//DTD SVG 1.1//EN" "http://www.w3.org/Graphics/SVG/1.1/DTD/svg11.dtd">
<svg width="192pt" height="192pt" viewBox="0 0 192 192" version="1.1" xmlns="http://www.w3.org/2000/svg">
<g id="#007f46ff">
<path fill="#007f46" opacity="1.00" d=" M 85.42 0.00 L 106.52 0.00 C 127.87 2.46 148.62 11.84 163.73 27.25 C 179.71 42.47 189.49 63.63 192.00 85.46 L 192.00 106.56 C 189.97 123.70 183.65 140.41 173.12 154.15 C 157.44 175.29 132.70 189.16 106.56 192.00 L 85.50 192.00 C 64.37 189.56 43.82 180.35 28.75 165.23 C 12.52 149.95 2.55 128.60 0.00 106.55 L 0.00 85.47 C 2.83 59.29 16.73 34.52 37.91 18.83 C 51.63 8.34 68.31 2.03 85.42 0.00 M 50.29 55.31 C 49.24 57.63 47.73 60.44 49.22 62.92 C 50.63 66.98 54.27 69.52 57.08 72.57 C 63.18 68.34 66.96 61.82 72.76 57.26 C 69.24 53.88 66.03 49.59 60.96 48.55 C 56.38 48.61 53.01 51.99 50.29 55.31 M 60.06 75.18 C 61.85 77.54 64.10 79.48 66.14 81.61 C 71.26 76.41 76.42 71.25 81.61 66.14 C 79.56 64.11 77.51 62.07 75.47 60.03 C 70.17 64.90 65.31 70.25 60.06 75.18 M 78.28 75.64 C 95.92 93.71 113.99 111.41 131.79 129.33 C 132.49 130.01 132.97 130.88 133.45 131.72 C 134.09 128.06 135.09 124.43 136.50 120.98 C 120.74 105.25 104.99 89.50 89.24 73.74 C 87.63 72.09 86.03 70.41 84.16 69.04 C 82.44 71.39 79.34 72.99 78.28 75.64 M 69.08 84.52 C 86.38 101.85 103.69 119.16 121.01 136.45 C 124.16 135.11 127.62 134.87 130.84 133.82 C 130.58 132.71 129.55 132.04 128.85 131.23 C 111.02 113.66 93.57 95.66 75.61 78.26 C 72.92 79.60 70.69 81.97 69.08 84.52 M 136.22 134.08 C 133.90 137.50 129.49 138.08 125.73 138.59 C 130.07 139.13 134.12 140.84 138.26 142.17 C 138.23 140.71 138.92 139.51 139.89 138.48 C 140.46 138.45 141.62 138.39 142.19 138.36 C 140.96 134.12 139.03 130.04 138.33 125.68 C 137.70 128.50 137.39 131.43 136.22 134.08 M 141.99 140.42 C 141.60 140.82 140.82 141.61 140.43 142.00 C 140.82 142.42 141.61 143.24 142.01 143.66 C 142.42 143.25 143.25 142.42 143.67 142.01 C 143.10 141.48 142.55 140.95 141.99 140.42 Z" />
</g>
<g id="#ffffffff">
<path fill="#ffffff" opacity="1.00" d=" M 50.29 55.31 C 53.01 51.99 56.38 48.61 60.96 48.55 C 66.03 49.59 69.24 53.88 72.76 57.26 C 66.96 61.82 63.18 68.34 57.08 72.57 C 54.27 69.52 50.63 66.98 49.22 62.92 C 47.73 60.44 49.24 57.63 50.29 55.31 Z" />
<path fill="#ffffff" opacity="1.00" d=" M 60.06 75.18 C 65.31 70.25 70.17 64.90 75.47 60.03 C 77.51 62.07 79.56 64.11 81.61 66.14 C 76.42 71.25 71.26 76.41 66.14 81.61 C 64.10 79.48 61.85 77.54 60.06 75.18 Z" />
<path fill="#ffffff" opacity="1.00" d=" M 78.28 75.64 C 79.34 72.99 82.44 71.39 84.16 69.04 C 86.03 70.41 87.63 72.09 89.24 73.74 C 104.99 89.50 120.74 105.25 136.50 120.98 C 135.09 124.43 134.09 128.06 133.45 131.72 C 132.97 130.88 132.49 130.01 131.79 129.33 C 113.99 111.41 95.92 93.71 78.28 75.64 Z" />
<path fill="#ffffff" opacity="1.00" d=" M 69.08 84.52 C 70.69 81.97 72.92 79.60 75.61 78.26 C 93.57 95.66 111.02 113.66 128.85 131.23 C 129.55 132.04 130.58 132.71 130.84 133.82 C 127.62 134.87 124.16 135.11 121.01 136.45 C 103.69 119.16 86.38 101.85 69.08 84.52 Z" />
<path fill="#ffffff" opacity="1.00" d=" M 136.22 134.08 C 137.39 131.43 137.70 128.50 138.33 125.68 C 139.03 130.04 140.96 134.12 142.19 138.36 C 141.62 138.39 140.46 138.45 139.89 138.48 C 138.92 139.51 138.23 140.71 138.26 142.17 C 134.12 140.84 130.07 139.13 125.73 138.59 C 129.49 138.08 133.90 137.50 136.22 134.08 Z" />
<path fill="#ffffff" opacity="1.00" d=" M 141.99 140.42 C 142.55 140.95 143.10 141.48 143.67 142.01 C 143.25 142.42 142.42 143.25 142.01 143.66 C 141.61 143.24 140.82 142.42 140.43 142.00 C 140.82 141.61 141.60 140.82 141.99 140.42 Z" />
</g>
</svg>
