<?xml version="1.0" encoding="UTF-8" ?>
<!DOCTYPE svg PUBLIC "-//W3C//DTD SVG 1.1//EN" "http://www.w3.org/Graphics/SVG/1.1/DTD/svg11.dtd">
<svg width="192pt" height="192pt" viewBox="0 0 192 192" version="1.1" xmlns="http://www.w3.org/2000/svg">
<g id="#007f46ff">
<path fill="#007f46" opacity="1.00" d=" M 85.65 0.00 L 106.27 0.00 C 127.30 2.08 147.62 11.40 162.72 26.20 C 179.22 41.62 189.77 63.19 192.00 85.65 L 192.00 106.33 C 189.90 127.34 180.59 147.65 165.79 162.73 C 150.37 179.23 128.80 189.77 106.34 192.00 L 85.71 192.00 C 58.68 189.43 33.29 174.47 17.54 152.42 C 7.82 138.94 1.64 122.89 0.00 106.35 L 0.00 85.68 C 2.22 63.22 12.76 41.64 29.26 26.21 C 44.34 11.42 64.65 2.11 85.65 0.00 M 107.36 54.53 C 107.14 59.00 108.69 63.25 108.88 67.69 C 116.51 66.51 124.08 64.94 131.71 63.73 C 131.32 59.33 130.46 54.97 129.23 50.72 C 121.91 51.44 114.48 52.63 107.36 54.53 M 47.61 53.82 C 47.34 57.68 47.59 61.57 47.50 65.44 C 55.19 65.42 62.88 65.39 70.57 65.45 C 70.55 61.08 70.51 56.71 70.59 52.33 C 65.92 50.76 60.87 51.92 56.04 51.56 C 53.19 51.82 49.05 50.44 47.61 53.82 M 78.67 52.84 C 78.10 57.03 78.64 61.31 78.41 65.53 C 86.14 65.45 93.86 65.45 101.59 65.53 C 101.42 61.32 101.77 57.08 101.41 52.88 C 101.08 52.58 100.43 51.98 100.10 51.67 C 93.42 51.49 86.71 51.46 80.03 51.69 C 79.69 51.98 79.01 52.56 78.67 52.84 M 109.46 71.60 C 110.29 73.88 110.62 76.29 110.80 78.70 C 118.46 77.42 126.11 76.03 133.76 74.65 C 133.54 72.13 133.06 69.65 132.45 67.20 C 124.86 69.06 117.06 69.82 109.46 71.60 M 47.46 68.68 C 47.46 71.30 47.45 73.91 47.42 76.52 C 55.14 76.46 62.86 76.45 70.58 76.52 C 70.55 73.91 70.54 71.30 70.54 68.68 C 62.85 68.70 55.15 68.70 47.46 68.68 M 78.39 68.95 C 78.46 71.51 78.46 74.06 78.39 76.61 C 86.13 76.50 93.87 76.50 101.61 76.61 C 101.53 74.06 101.54 71.51 101.61 68.95 C 93.87 68.74 86.13 68.75 78.39 68.95 M 111.20 82.54 C 112.02 84.94 112.48 87.43 112.78 89.94 C 115.40 104.94 118.11 119.93 120.67 134.94 C 121.25 136.84 121.08 139.35 122.96 140.55 C 126.97 140.06 130.88 138.90 134.89 138.41 C 138.16 137.77 141.61 137.69 144.63 136.14 C 141.23 116.84 137.54 97.58 134.42 78.26 C 126.71 79.89 118.92 81.00 111.20 82.54 M 47.60 80.44 C 47.65 97.30 47.62 114.15 47.61 131.01 C 47.70 133.87 47.13 136.93 48.57 139.56 C 55.81 139.54 63.05 139.54 70.29 139.57 C 70.86 137.75 71.38 135.90 71.27 133.98 C 71.23 116.17 71.16 98.36 71.22 80.55 C 63.35 80.31 55.47 80.53 47.60 80.44 M 78.39 80.39 C 78.54 99.89 78.41 119.40 78.45 138.91 C 81.18 139.91 84.12 139.49 86.95 139.55 C 91.29 139.46 95.62 139.71 99.95 139.46 C 101.11 139.46 101.67 138.13 101.53 137.12 C 101.63 118.21 101.44 99.30 101.62 80.39 C 93.87 80.49 86.13 80.50 78.39 80.39 Z" />
</g>
<g id="#ffffffff">
<path fill="#ffffff" opacity="1.00" d=" M 107.36 54.53 C 114.48 52.63 121.91 51.44 129.23 50.72 C 130.46 54.97 131.32 59.33 131.71 63.73 C 124.08 64.94 116.51 66.51 108.88 67.69 C 108.69 63.25 107.14 59.00 107.36 54.53 Z" />
<path fill="#ffffff" opacity="1.00" d=" M 47.61 53.82 C 49.05 50.44 53.19 51.82 56.04 51.56 C 60.87 51.92 65.92 50.76 70.59 52.33 C 70.51 56.71 70.55 61.08 70.57 65.45 C 62.88 65.39 55.19 65.42 47.50 65.44 C 47.59 61.57 47.34 57.68 47.61 53.82 Z" />
<path fill="#ffffff" opacity="1.00" d=" M 78.67 52.84 C 79.01 52.56 79.69 51.98 80.03 51.69 C 86.71 51.46 93.42 51.49 100.10 51.67 C 100.43 51.98 101.08 52.58 101.41 52.88 C 101.77 57.08 101.42 61.32 101.59 65.53 C 93.86 65.45 86.14 65.45 78.41 65.53 C 78.64 61.31 78.10 57.03 78.67 52.84 Z" />
<path fill="#ffffff" opacity="1.00" d=" M 109.46 71.60 C 117.06 69.82 124.86 69.06 132.45 67.20 C 133.06 69.65 133.54 72.13 133.76 74.65 C 126.11 76.03 118.46 77.42 110.80 78.70 C 110.62 76.29 110.29 73.88 109.46 71.60 Z" />
<path fill="#ffffff" opacity="1.00" d=" M 47.46 68.68 C 55.15 68.70 62.85 68.70 70.54 68.68 C 70.54 71.30 70.55 73.91 70.58 76.52 C 62.86 76.45 55.14 76.46 47.42 76.52 C 47.45 73.91 47.46 71.30 47.46 68.68 Z" />
<path fill="#ffffff" opacity="1.00" d=" M 78.39 68.95 C 86.13 68.75 93.87 68.74 101.61 68.95 C 101.54 71.51 101.53 74.06 101.61 76.61 C 93.87 76.50 86.13 76.50 78.39 76.61 C 78.46 74.06 78.46 71.51 78.39 68.95 Z" />
<path fill="#ffffff" opacity="1.00" d=" M 111.20 82.54 C 118.92 81.00 126.71 79.89 134.42 78.26 C 137.54 97.58 141.23 116.84 144.63 136.14 C 141.61 137.69 138.16 137.77 134.89 138.41 C 130.88 138.90 126.97 140.06 122.96 140.55 C 121.08 139.35 121.25 136.84 120.67 134.94 C 118.11 119.93 115.40 104.94 112.78 89.94 C 112.48 87.43 112.02 84.94 111.20 82.54 Z" />
<path fill="#ffffff" opacity="1.00" d=" M 47.60 80.44 C 55.47 80.53 63.35 80.31 71.22 80.55 C 71.16 98.36 71.23 116.17 71.27 133.98 C 71.38 135.90 70.86 137.75 70.29 139.57 C 63.05 139.54 55.81 139.54 48.57 139.56 C 47.13 136.93 47.70 133.87 47.61 131.01 C 47.62 114.15 47.65 97.30 47.60 80.44 Z" />
<path fill="#ffffff" opacity="1.00" d=" M 78.39 80.39 C 86.13 80.50 93.87 80.49 101.62 80.39 C 101.44 99.30 101.63 118.21 101.53 137.12 C 101.67 138.13 101.11 139.46 99.95 139.46 C 95.62 139.71 91.29 139.46 86.95 139.55 C 84.12 139.49 81.18 139.91 78.45 138.91 C 78.41 119.40 78.54 99.89 78.39 80.39 Z" />
</g>
</svg>
