<?xml version="1.0" encoding="UTF-8" ?>
<!DOCTYPE svg PUBLIC "-//W3C//DTD SVG 1.1//EN" "http://www.w3.org/Graphics/SVG/1.1/DTD/svg11.dtd">
<svg width="192pt" height="192pt" viewBox="0 0 192 192" version="1.1" xmlns="http://www.w3.org/2000/svg">
<g id="#007f46ff">
<path fill="#007f46" opacity="1.00" d=" M 85.50 0.00 L 106.47 0.00 C 123.18 1.82 139.42 7.96 152.96 17.95 C 174.70 33.66 189.27 58.79 192.00 85.50 L 192.00 106.48 C 189.71 127.65 180.35 148.16 165.26 163.25 C 149.96 179.46 128.63 189.61 106.52 192.00 L 85.52 192.00 C 68.78 190.17 52.51 184.01 38.96 173.99 C 17.26 158.27 2.72 133.17 0.00 106.49 L 0.00 85.51 C 2.38 63.39 12.53 42.05 28.74 26.74 C 43.83 11.65 64.34 2.30 85.50 0.00 M 47.49 47.49 C 47.54 50.43 47.54 53.37 47.53 56.31 C 50.66 56.30 53.80 56.33 56.93 56.25 C 59.66 59.77 61.05 64.06 62.85 68.08 C 65.90 74.39 69.25 80.57 71.85 87.09 C 72.93 89.83 75.51 92.45 74.47 95.59 C 72.04 101.00 66.55 105.56 67.50 112.00 C 67.41 115.45 70.68 117.59 73.10 119.48 C 93.57 119.48 114.04 119.41 134.51 119.51 C 134.45 116.84 134.45 114.16 134.51 111.49 C 116.00 111.58 97.50 111.52 78.99 111.52 C 77.82 111.62 77.11 110.46 76.21 109.92 C 77.80 106.80 79.53 103.74 80.87 100.49 C 93.25 100.26 105.64 100.52 118.02 100.37 C 121.47 100.35 124.53 98.01 126.14 95.06 C 130.53 86.61 135.41 78.43 139.87 70.02 C 141.40 66.99 143.90 64.36 144.61 60.98 C 143.51 59.82 142.97 57.45 141.02 57.57 C 116.27 57.45 91.52 57.63 66.76 57.48 C 66.04 53.89 64.01 50.77 62.48 47.50 C 57.48 47.55 52.49 47.57 47.49 47.49 M 67.55 132.16 C 67.55 134.10 67.55 136.04 67.53 137.98 C 69.15 141.83 72.83 144.34 77.00 144.47 C 81.08 143.51 85.41 140.67 85.51 136.04 C 86.00 131.97 82.98 128.74 79.94 126.51 C 77.65 126.47 75.36 126.48 73.07 126.51 C 70.61 127.72 69.01 129.92 67.55 132.16 M 116.53 137.99 C 118.45 142.76 124.53 146.20 129.26 143.23 C 133.40 141.75 135.12 137.11 134.46 133.02 C 133.21 130.41 131.30 128.23 128.98 126.52 C 126.67 126.47 124.37 126.48 122.06 126.51 C 117.69 128.57 115.64 133.33 116.53 137.99 Z" />
</g>
<g id="#ffffffff">
<path fill="#ffffff" opacity="1.00" d=" M 47.49 47.49 C 52.49 47.57 57.48 47.55 62.48 47.50 C 64.01 50.77 66.04 53.89 66.76 57.48 C 91.52 57.63 116.27 57.45 141.02 57.57 C 142.97 57.45 143.51 59.82 144.61 60.98 C 143.90 64.36 141.40 66.99 139.87 70.02 C 135.41 78.43 130.53 86.61 126.14 95.06 C 124.53 98.01 121.47 100.35 118.02 100.37 C 105.64 100.52 93.25 100.26 80.87 100.49 C 79.53 103.74 77.80 106.80 76.21 109.92 C 77.11 110.46 77.82 111.62 78.99 111.52 C 97.50 111.52 116.00 111.58 134.51 111.49 C 134.45 114.16 134.45 116.84 134.51 119.51 C 114.04 119.41 93.57 119.48 73.10 119.48 C 70.68 117.59 67.41 115.45 67.50 112.00 C 66.55 105.56 72.04 101.00 74.47 95.59 C 75.51 92.45 72.93 89.83 71.85 87.09 C 69.25 80.57 65.90 74.39 62.85 68.08 C 61.05 64.06 59.66 59.77 56.93 56.25 C 53.80 56.33 50.66 56.30 47.53 56.31 C 47.54 53.37 47.54 50.43 47.49 47.49 Z" />
<path fill="#ffffff" opacity="1.00" d=" M 67.55 132.16 C 69.01 129.92 70.61 127.72 73.07 126.51 C 75.36 126.48 77.65 126.47 79.94 126.51 C 82.98 128.74 86.00 131.97 85.51 136.04 C 85.41 140.67 81.08 143.51 77.00 144.47 C 72.83 144.34 69.15 141.83 67.53 137.98 C 67.55 136.04 67.55 134.10 67.55 132.16 Z" />
<path fill="#ffffff" opacity="1.00" d=" M 116.53 137.99 C 115.64 133.33 117.69 128.57 122.06 126.51 C 124.37 126.48 126.67 126.47 128.98 126.52 C 131.30 128.23 133.21 130.41 134.46 133.02 C 135.12 137.11 133.40 141.75 129.26 143.23 C 124.53 146.20 118.45 142.76 116.53 137.99 Z" />
</g>
</svg>
