<?xml version="1.0" encoding="UTF-8" ?>
<!DOCTYPE svg PUBLIC "-//W3C//DTD SVG 1.1//EN" "http://www.w3.org/Graphics/SVG/1.1/DTD/svg11.dtd">
<svg width="192pt" height="192pt" viewBox="0 0 192 192" version="1.1" xmlns="http://www.w3.org/2000/svg">
<g id="#007f46ff">
<path fill="#007f46" opacity="1.00" d=" M 85.61 0.00 L 106.38 0.00 C 141.94 3.24 174.19 28.41 186.42 61.88 C 189.32 69.49 191.22 77.48 192.00 85.59 L 192.00 106.40 C 189.32 134.79 172.87 161.29 149.02 176.80 C 136.34 185.24 121.54 190.48 106.39 192.00 L 85.63 192.00 C 50.10 188.77 17.87 163.64 5.62 130.22 C 2.70 122.57 0.78 114.55 0.00 106.41 L 0.00 85.62 C 0.77 77.50 2.68 69.50 5.58 61.87 C 17.81 28.41 50.05 3.24 85.61 0.00 M 93.29 48.51 C 81.84 49.45 70.51 54.20 62.47 62.53 C 53.52 71.20 48.70 83.66 48.40 96.03 C 48.72 108.37 53.53 120.82 62.48 129.48 C 71.16 138.44 83.63 143.30 96.02 143.60 C 108.36 143.29 120.79 138.47 129.45 129.54 C 138.47 120.87 143.31 108.34 143.60 95.94 C 143.28 83.84 138.65 71.61 130.00 63.00 C 120.66 53.16 106.80 47.86 93.29 48.51 Z" />
<path fill="#007f46" opacity="1.00" d=" M 91.94 81.90 C 102.99 77.13 113.61 71.28 124.88 67.05 C 124.40 69.00 123.77 70.92 122.83 72.70 C 117.28 83.98 112.54 95.67 106.65 106.75 C 98.85 111.05 90.48 114.21 82.55 118.26 C 77.31 120.29 72.52 123.43 67.08 124.92 C 68.58 119.49 71.69 114.70 73.73 109.47 C 77.40 102.12 80.56 94.53 84.20 87.17 C 85.44 83.98 89.29 83.51 91.94 81.90 M 92.59 92.61 C 90.12 95.02 91.34 99.08 94.14 100.67 C 95.38 100.67 96.63 100.67 97.88 100.68 C 98.77 99.70 99.71 98.76 100.68 97.86 C 100.68 96.63 100.68 95.39 100.68 94.16 C 99.09 91.33 95.00 90.11 92.59 92.61 Z" />
</g>
<g id="#ffffffff">
<path fill="#ffffff" opacity="1.00" d=" M 93.29 48.51 C 106.80 47.86 120.66 53.16 130.00 63.00 C 138.65 71.61 143.28 83.84 143.60 95.94 C 143.31 108.34 138.47 120.87 129.45 129.54 C 120.79 138.47 108.36 143.29 96.02 143.60 C 83.63 143.30 71.16 138.44 62.48 129.48 C 53.53 120.82 48.72 108.37 48.40 96.03 C 48.70 83.66 53.52 71.20 62.47 62.53 C 70.51 54.20 81.84 49.45 93.29 48.51 M 91.94 81.90 C 89.29 83.51 85.44 83.98 84.20 87.17 C 80.56 94.53 77.40 102.12 73.73 109.47 C 71.69 114.70 68.58 119.49 67.08 124.92 C 72.52 123.43 77.31 120.29 82.55 118.26 C 90.48 114.21 98.85 111.05 106.65 106.75 C 112.54 95.67 117.28 83.98 122.83 72.70 C 123.77 70.92 124.40 69.00 124.88 67.05 C 113.61 71.28 102.99 77.13 91.94 81.90 Z" />
<path fill="#ffffff" opacity="1.00" d=" M 92.59 92.61 C 95.00 90.11 99.09 91.33 100.68 94.16 C 100.68 95.39 100.68 96.63 100.68 97.86 C 99.71 98.76 98.77 99.70 97.88 100.68 C 96.63 100.67 95.38 100.67 94.14 100.67 C 91.34 99.08 90.12 95.02 92.59 92.61 Z" />
</g>
</svg>
