<?xml version="1.0" encoding="UTF-8" ?>
<!DOCTYPE svg PUBLIC "-//W3C//DTD SVG 1.1//EN" "http://www.w3.org/Graphics/SVG/1.1/DTD/svg11.dtd">
<svg width="192pt" height="192pt" viewBox="0 0 192 192" version="1.1" xmlns="http://www.w3.org/2000/svg">
<g id="#007f46ff">
<path fill="#007f46" opacity="1.00" d=" M 85.59 0.00 L 106.35 0.00 C 127.78 2.27 148.55 11.82 163.72 27.21 C 179.70 42.48 189.66 63.67 192.00 85.60 L 192.00 106.36 C 189.74 127.57 180.37 148.13 165.25 163.26 C 149.92 179.49 128.54 189.65 106.39 192.00 L 85.63 192.00 C 64.44 189.73 43.89 180.37 28.77 165.28 C 12.54 149.94 2.37 128.55 0.00 106.39 L 0.00 85.66 C 2.33 63.50 12.50 42.11 28.73 26.76 C 43.84 11.64 64.39 2.28 85.59 0.00 M 89.21 48.12 C 79.13 49.61 69.75 54.51 62.23 61.31 C 53.25 70.52 47.68 83.12 47.48 96.03 C 47.67 107.98 52.48 119.64 60.30 128.63 C 68.22 136.77 78.78 142.75 90.20 143.87 C 95.45 145.38 100.78 143.96 106.02 143.28 C 122.50 139.74 136.65 127.24 141.85 111.14 C 149.21 91.12 140.29 66.94 122.42 55.63 C 112.70 49.44 100.70 46.09 89.21 48.12 Z" />
<path fill="#007f46" opacity="1.00" d=" M 89.46 56.69 C 97.41 55.84 105.77 56.30 112.96 60.14 C 124.15 65.22 132.31 75.91 134.94 87.84 C 136.80 97.47 135.35 107.78 130.16 116.20 C 123.10 128.34 109.08 136.40 94.96 135.61 C 74.58 135.81 56.16 117.37 56.39 96.99 C 55.71 86.45 60.28 76.07 67.37 68.43 C 73.30 62.38 81.14 58.28 89.46 56.69 M 91.55 72.22 C 91.57 81.62 91.59 91.02 91.54 100.43 C 99.72 105.65 108.18 110.45 116.26 115.83 C 117.47 114.10 118.63 112.32 119.77 110.54 C 112.71 106.37 105.90 101.72 98.55 98.10 C 97.55 89.44 98.60 80.67 97.99 71.98 C 95.84 71.79 93.68 71.85 91.55 72.22 Z" />
</g>
<g id="#ffffffff">
<path fill="#ffffff" opacity="1.00" d=" M 89.21 48.12 C 100.70 46.09 112.70 49.44 122.42 55.63 C 140.29 66.94 149.21 91.12 141.85 111.14 C 136.65 127.24 122.50 139.74 106.02 143.28 C 100.78 143.96 95.45 145.38 90.20 143.87 C 78.78 142.75 68.22 136.77 60.30 128.63 C 52.48 119.64 47.67 107.98 47.48 96.03 C 47.68 83.12 53.25 70.52 62.23 61.31 C 69.75 54.51 79.13 49.61 89.21 48.12 M 89.46 56.69 C 81.14 58.28 73.30 62.38 67.37 68.43 C 60.28 76.07 55.71 86.45 56.39 96.99 C 56.16 117.37 74.58 135.81 94.96 135.61 C 109.08 136.40 123.10 128.34 130.16 116.20 C 135.35 107.78 136.80 97.47 134.94 87.84 C 132.31 75.91 124.15 65.22 112.96 60.14 C 105.77 56.30 97.41 55.84 89.46 56.69 Z" />
<path fill="#ffffff" opacity="1.00" d=" M 91.55 72.22 C 93.68 71.85 95.84 71.79 97.99 71.98 C 98.60 80.67 97.55 89.44 98.55 98.10 C 105.90 101.72 112.71 106.37 119.77 110.54 C 118.63 112.32 117.47 114.10 116.26 115.83 C 108.18 110.45 99.72 105.65 91.54 100.43 C 91.59 91.02 91.57 81.62 91.55 72.22 Z" />
</g>
</svg>
