<?xml version="1.0" encoding="UTF-8" ?>
<!DOCTYPE svg PUBLIC "-//W3C//DTD SVG 1.1//EN" "http://www.w3.org/Graphics/SVG/1.1/DTD/svg11.dtd">
<svg width="192pt" height="192pt" viewBox="0 0 192 192" version="1.1" xmlns="http://www.w3.org/2000/svg">
<g id="#007f46ff">
<path fill="#007f46" opacity="1.00" d=" M 85.68 0.00 L 106.27 0.00 C 128.01 2.24 149.01 12.06 164.28 27.75 C 179.95 43.01 189.73 63.97 192.00 85.67 L 192.00 106.28 C 189.75 128.02 179.94 149.02 164.24 164.29 C 148.99 179.95 128.01 189.74 106.31 192.00 L 85.72 192.00 C 63.98 189.75 42.97 179.94 27.71 164.23 C 12.05 148.99 2.27 128.02 0.00 106.33 L 0.00 85.71 C 2.25 63.99 12.05 43.00 27.73 27.74 C 42.99 12.06 63.97 2.26 85.68 0.00 M 68.16 61.14 C 55.77 69.89 48.69 85.00 48.52 100.03 C 48.68 105.50 50.04 110.87 51.79 116.03 C 55.56 125.99 62.62 134.90 72.12 139.90 C 73.40 137.56 74.72 135.24 76.19 133.01 C 64.82 126.19 56.79 113.46 57.26 100.00 C 56.00 81.02 71.57 63.54 89.95 60.49 C 94.29 60.19 98.66 60.19 103.01 60.48 C 119.16 63.19 132.92 76.75 135.52 92.97 C 135.81 97.60 135.82 102.26 135.43 106.88 C 133.23 117.69 126.33 127.30 116.88 132.98 C 118.28 135.24 119.59 137.57 120.88 139.90 C 135.40 131.92 144.20 115.33 144.49 98.97 C 143.93 89.09 141.05 79.04 134.87 71.17 C 125.95 58.50 110.34 51.37 95.00 51.57 C 85.45 52.32 75.77 55.13 68.16 61.14 M 83.71 74.29 C 75.83 77.93 70.51 85.71 68.64 94.03 C 68.36 97.35 68.40 100.68 68.56 104.01 C 69.56 111.91 74.83 118.28 80.67 123.32 C 83.26 122.03 84.15 119.10 85.63 116.82 C 82.46 113.91 79.02 110.93 77.64 106.70 C 75.26 101.32 76.54 95.27 78.73 90.06 C 82.69 83.66 89.93 79.38 97.51 79.63 C 104.40 80.22 110.62 84.21 114.26 90.05 C 115.31 93.29 116.87 96.50 116.59 100.00 C 116.90 106.85 112.59 112.86 107.36 116.85 C 108.78 119.13 110.08 121.48 111.56 123.73 C 114.92 120.76 118.57 117.88 120.80 113.91 C 126.06 105.23 126.02 93.61 120.76 84.95 C 115.93 76.33 106.13 71.29 96.42 71.08 C 92.02 71.40 87.60 72.10 83.71 74.29 M 87.48 98.95 C 87.06 102.42 89.41 105.32 91.94 107.36 C 94.36 107.88 96.90 109.15 99.29 107.80 C 104.41 106.55 107.22 99.98 104.53 95.44 C 103.51 93.05 101.09 91.83 99.02 90.52 C 97.34 90.52 95.66 90.52 93.98 90.51 C 90.73 92.19 87.49 94.99 87.48 98.95 Z" />
</g>
<g id="#ffffffff">
<path fill="#ffffff" opacity="1.00" d=" M 68.16 61.14 C 75.77 55.13 85.45 52.32 95.00 51.57 C 110.34 51.37 125.95 58.50 134.87 71.17 C 141.05 79.04 143.93 89.09 144.49 98.97 C 144.20 115.33 135.40 131.92 120.88 139.90 C 119.59 137.57 118.28 135.24 116.88 132.98 C 126.33 127.30 133.23 117.69 135.43 106.88 C 135.82 102.26 135.81 97.60 135.52 92.97 C 132.92 76.75 119.16 63.19 103.01 60.48 C 98.66 60.19 94.29 60.19 89.95 60.49 C 71.57 63.54 56.00 81.02 57.26 100.00 C 56.79 113.46 64.82 126.19 76.19 133.01 C 74.72 135.24 73.40 137.56 72.12 139.90 C 62.62 134.90 55.56 125.99 51.79 116.03 C 50.04 110.87 48.68 105.50 48.52 100.03 C 48.69 85.00 55.77 69.89 68.16 61.14 Z" />
<path fill="#ffffff" opacity="1.00" d=" M 83.71 74.29 C 87.60 72.10 92.02 71.40 96.42 71.08 C 106.13 71.29 115.93 76.33 120.76 84.95 C 126.02 93.61 126.06 105.23 120.80 113.91 C 118.57 117.88 114.92 120.76 111.56 123.73 C 110.08 121.48 108.78 119.13 107.36 116.85 C 112.59 112.86 116.90 106.85 116.59 100.00 C 116.87 96.50 115.31 93.29 114.26 90.05 C 110.62 84.21 104.40 80.22 97.51 79.63 C 89.93 79.38 82.69 83.66 78.73 90.06 C 76.54 95.27 75.26 101.32 77.64 106.70 C 79.02 110.93 82.46 113.91 85.63 116.82 C 84.15 119.10 83.26 122.03 80.67 123.32 C 74.83 118.28 69.56 111.91 68.56 104.01 C 68.40 100.68 68.36 97.35 68.64 94.03 C 70.51 85.71 75.83 77.93 83.71 74.29 Z" />
<path fill="#ffffff" opacity="1.00" d=" M 87.48 98.95 C 87.49 94.99 90.73 92.19 93.98 90.51 C 95.66 90.52 97.34 90.52 99.02 90.52 C 101.09 91.83 103.51 93.05 104.53 95.44 C 107.22 99.98 104.41 106.55 99.29 107.80 C 96.90 109.15 94.36 107.88 91.94 107.36 C 89.41 105.32 87.06 102.42 87.48 98.95 Z" />
</g>
</svg>
