<?xml version="1.0" encoding="UTF-8" ?>
<!DOCTYPE svg PUBLIC "-//W3C//DTD SVG 1.1//EN" "http://www.w3.org/Graphics/SVG/1.1/DTD/svg11.dtd">
<svg width="192pt" height="192pt" viewBox="0 0 192 192" version="1.1" xmlns="http://www.w3.org/2000/svg">
<g id="#007f46ff">
<path fill="#007f46" opacity="1.00" d=" M 85.67 0.00 L 106.28 0.00 C 140.78 3.08 172.29 26.85 185.23 58.90 C 188.84 67.40 191.17 76.45 192.00 85.66 L 192.00 106.29 C 188.91 140.80 165.13 172.31 133.07 185.24 C 124.58 188.84 115.53 191.17 106.34 192.00 L 85.69 192.00 C 68.86 190.43 52.57 184.05 38.96 174.05 C 17.30 158.23 2.44 133.16 0.00 106.35 L 0.00 85.70 C 2.50 58.42 17.81 32.87 40.12 17.13 C 53.49 7.64 69.33 1.52 85.67 0.00 M 79.64 56.54 C 76.17 62.13 75.61 68.92 75.29 75.34 C 73.70 78.24 74.41 81.73 74.45 84.89 C 74.51 87.77 77.29 89.12 78.77 91.18 C 79.99 94.78 80.25 99.02 83.14 101.81 C 86.71 105.05 91.06 107.71 95.94 108.30 C 100.58 107.77 104.77 105.31 108.22 102.26 C 111.23 99.28 112.06 94.92 112.87 90.92 C 118.79 88.03 118.54 80.25 116.60 74.91 C 115.88 68.11 115.59 60.55 110.99 55.04 C 108.98 52.88 105.89 53.40 103.26 53.37 C 95.96 48.38 85.45 50.11 79.64 56.54 M 76.61 116.45 C 70.54 119.44 63.97 121.23 57.71 123.75 C 55.33 124.73 52.75 125.97 51.70 128.50 C 49.96 132.71 49.60 137.32 48.34 141.67 C 80.11 141.65 111.88 141.59 143.65 141.60 C 142.17 136.67 142.23 131.00 139.27 126.67 C 133.09 122.09 125.13 121.00 118.25 117.78 C 114.01 116.80 112.68 112.30 110.07 109.38 C 105.42 113.84 100.95 118.48 96.42 123.06 C 91.15 119.00 86.92 113.79 82.07 109.26 C 80.09 111.53 78.78 114.37 76.61 116.45 Z" />
</g>
<g id="#ffffffff">
<path fill="#ffffff" opacity="1.00" d=" M 79.64 56.54 C 85.45 50.11 95.96 48.38 103.26 53.37 C 105.89 53.40 108.98 52.88 110.99 55.04 C 115.59 60.55 115.88 68.11 116.60 74.91 C 118.54 80.25 118.79 88.03 112.87 90.92 C 112.06 94.92 111.23 99.28 108.22 102.26 C 104.77 105.31 100.58 107.77 95.94 108.30 C 91.06 107.71 86.71 105.05 83.14 101.81 C 80.25 99.02 79.99 94.78 78.77 91.18 C 77.29 89.12 74.51 87.77 74.45 84.89 C 74.41 81.73 73.70 78.24 75.29 75.34 C 75.61 68.92 76.17 62.13 79.64 56.54 Z" />
<path fill="#ffffff" opacity="1.00" d=" M 76.61 116.45 C 78.78 114.37 80.09 111.53 82.07 109.26 C 86.92 113.79 91.15 119.00 96.42 123.06 C 100.95 118.48 105.42 113.84 110.07 109.38 C 112.68 112.30 114.01 116.80 118.25 117.78 C 125.13 121.00 133.09 122.09 139.27 126.67 C 142.23 131.00 142.17 136.67 143.65 141.60 C 111.88 141.59 80.11 141.65 48.34 141.67 C 49.60 137.32 49.96 132.71 51.70 128.50 C 52.75 125.97 55.33 124.73 57.71 123.75 C 63.97 121.23 70.54 119.44 76.61 116.45 Z" />
</g>
</svg>
