<?xml version="1.0" encoding="UTF-8" ?>
<!DOCTYPE svg PUBLIC "-//W3C//DTD SVG 1.1//EN" "http://www.w3.org/Graphics/SVG/1.1/DTD/svg11.dtd">
<svg width="192pt" height="192pt" viewBox="0 0 192 192" version="1.1" xmlns="http://www.w3.org/2000/svg">
<g id="#007f46ff">
<path fill="#007f46" opacity="1.00" d=" M 85.87 0.00 L 106.09 0.00 C 135.40 2.60 162.70 20.00 178.08 44.98 C 185.82 57.26 190.63 71.42 192.00 85.87 L 192.00 106.09 C 189.00 140.68 165.19 172.22 133.11 185.24 C 124.51 188.80 115.41 191.20 106.12 192.00 L 85.91 192.00 C 56.15 189.33 28.42 171.44 13.20 145.81 C 5.93 133.80 1.29 120.13 0.00 106.14 L 0.00 85.92 C 0.79 76.61 3.20 67.48 6.78 58.86 C 19.79 26.81 51.30 3.02 85.87 0.00 M 89.38 47.38 C 89.53 61.39 89.45 75.41 89.42 89.42 C 75.40 89.45 61.39 89.53 47.38 89.38 C 47.50 93.79 47.50 98.21 47.38 102.62 C 61.39 102.47 75.40 102.55 89.42 102.58 C 89.45 116.60 89.53 130.61 89.38 144.62 C 93.79 144.50 98.21 144.50 102.62 144.62 C 102.47 130.61 102.55 116.60 102.58 102.58 C 116.59 102.55 130.61 102.47 144.62 102.62 C 144.50 98.21 144.50 93.79 144.62 89.38 C 130.61 89.53 116.60 89.45 102.58 89.42 C 102.55 75.40 102.47 61.39 102.62 47.38 C 98.21 47.50 93.79 47.50 89.38 47.38 Z" />
</g>
<g id="#ffffffff">
<path fill="#ffffff" opacity="1.00" d=" M 89.38 47.38 C 93.79 47.50 98.21 47.50 102.62 47.38 C 102.47 61.39 102.55 75.40 102.58 89.42 C 116.60 89.45 130.61 89.53 144.62 89.38 C 144.50 93.79 144.50 98.21 144.62 102.62 C 130.61 102.47 116.59 102.55 102.58 102.58 C 102.55 116.60 102.47 130.61 102.62 144.62 C 98.21 144.50 93.79 144.50 89.38 144.62 C 89.53 130.61 89.45 116.60 89.42 102.58 C 75.40 102.55 61.39 102.47 47.38 102.62 C 47.50 98.21 47.50 93.79 47.38 89.38 C 61.39 89.53 75.40 89.45 89.42 89.42 C 89.45 75.41 89.53 61.39 89.38 47.38 Z" />
</g>
</svg>
