<?xml version="1.0" encoding="UTF-8" ?>
<!DOCTYPE svg PUBLIC "-//W3C//DTD SVG 1.1//EN" "http://www.w3.org/Graphics/SVG/1.1/DTD/svg11.dtd">
<svg width="192pt" height="192pt" viewBox="0 0 192 192" version="1.1" xmlns="http://www.w3.org/2000/svg">
<g id="#007f46ff">
<path fill="#007f46" opacity="1.00" d=" M 85.63 0.00 L 106.34 0.00 C 127.58 2.24 148.15 11.64 163.29 26.77 C 179.50 42.11 189.67 63.48 192.00 85.62 L 192.00 106.35 C 188.75 140.57 165.50 171.83 133.76 184.93 C 125.04 188.61 115.79 190.99 106.37 192.00 L 85.67 192.00 C 64.22 189.74 43.44 180.17 28.26 164.77 C 12.30 149.50 2.32 128.31 0.00 106.39 L 0.00 85.65 C 2.32 63.48 12.51 42.10 28.73 26.75 C 43.86 11.63 64.41 2.25 85.63 0.00 M 87.52 53.03 C 87.54 55.07 87.54 57.11 87.50 59.15 C 88.86 60.63 90.28 62.06 91.81 63.37 C 97.14 64.28 102.64 64.36 107.65 66.64 C 116.82 70.56 124.12 79.03 126.01 88.91 C 127.65 97.93 126.39 108.08 120.37 115.33 C 115.79 121.73 108.54 125.86 100.92 127.47 C 94.82 127.62 88.38 128.16 82.77 125.23 C 75.84 122.14 70.31 116.55 66.73 109.93 C 65.67 106.81 64.91 103.53 63.13 100.72 C 62.07 98.86 59.78 98.52 58.00 97.66 C 57.27 97.62 55.80 97.55 55.06 97.52 C 51.79 99.06 48.41 102.01 48.64 105.93 C 51.07 118.56 58.89 130.21 69.95 136.87 C 77.62 141.95 86.89 143.95 95.95 144.48 C 110.31 143.79 124.70 136.96 133.27 125.24 C 139.59 117.20 142.62 107.08 143.49 97.01 C 143.21 83.38 137.70 69.63 127.60 60.31 C 118.80 52.21 106.95 47.64 95.02 47.54 C 91.54 47.42 88.96 50.15 87.52 53.03 Z" />
</g>
<g id="#ffffffff">
<path fill="#ffffff" opacity="1.00" d=" M 87.52 53.03 C 88.96 50.15 91.54 47.42 95.02 47.54 C 106.95 47.64 118.80 52.21 127.60 60.31 C 137.70 69.63 143.21 83.38 143.49 97.01 C 142.62 107.08 139.59 117.20 133.27 125.24 C 124.70 136.96 110.31 143.79 95.95 144.48 C 86.89 143.95 77.62 141.95 69.95 136.87 C 58.89 130.21 51.07 118.56 48.64 105.93 C 48.41 102.01 51.79 99.06 55.06 97.52 C 55.80 97.55 57.27 97.62 58.00 97.66 C 59.78 98.52 62.07 98.86 63.13 100.72 C 64.91 103.53 65.67 106.81 66.73 109.93 C 70.31 116.55 75.84 122.14 82.77 125.23 C 88.38 128.16 94.82 127.62 100.92 127.47 C 108.54 125.86 115.79 121.73 120.37 115.33 C 126.39 108.08 127.65 97.93 126.01 88.91 C 124.12 79.03 116.82 70.56 107.65 66.64 C 102.64 64.36 97.14 64.28 91.81 63.37 C 90.28 62.06 88.86 60.63 87.50 59.15 C 87.54 57.11 87.54 55.07 87.52 53.03 Z" />
</g>
</svg>
