<?xml version="1.0" encoding="UTF-8" ?>
<!DOCTYPE svg PUBLIC "-//W3C//DTD SVG 1.1//EN" "http://www.w3.org/Graphics/SVG/1.1/DTD/svg11.dtd">
<svg width="192pt" height="192pt" viewBox="0 0 192 192" version="1.1" xmlns="http://www.w3.org/2000/svg">
<g id="#007f46ff">
<path fill="#007f46" opacity="1.00" d=" M 85.64 0.00 L 106.29 0.00 C 140.77 3.25 172.27 26.81 185.19 58.91 C 188.75 67.42 190.99 76.46 192.00 85.62 L 192.00 106.31 C 188.74 140.75 165.21 172.23 133.15 185.16 C 124.61 188.75 115.55 190.99 106.36 192.00 L 85.69 192.00 C 64.69 189.77 44.32 180.57 29.23 165.73 C 12.74 150.33 2.37 128.75 0.00 106.36 L 0.00 85.67 C 2.34 63.26 12.73 41.66 29.24 26.26 C 44.32 11.42 64.66 2.23 85.64 0.00 M 54.42 49.45 C 50.79 50.58 48.83 54.41 48.58 57.98 C 48.56 86.35 48.63 114.71 48.54 143.07 C 49.06 142.13 49.51 141.10 50.34 140.37 C 55.62 135.20 60.82 129.94 66.03 124.70 C 67.23 124.07 68.69 124.40 69.99 124.27 C 91.04 124.11 112.09 124.30 133.14 124.19 C 138.69 124.45 143.89 119.63 143.48 113.97 C 143.38 94.64 143.62 75.31 143.35 55.99 C 142.04 51.87 138.51 48.66 134.06 48.54 C 110.05 48.53 86.05 48.55 62.04 48.53 C 59.49 48.60 56.75 48.12 54.42 49.45 Z" />
</g>
<g id="#ffffffff">
<path fill="#ffffff" opacity="1.00" d=" M 54.42 49.45 C 56.75 48.12 59.49 48.60 62.04 48.53 C 86.05 48.55 110.05 48.53 134.06 48.54 C 138.51 48.66 142.04 51.87 143.35 55.99 C 143.62 75.31 143.38 94.64 143.48 113.97 C 143.89 119.63 138.69 124.45 133.14 124.19 C 112.09 124.30 91.04 124.11 69.99 124.27 C 68.69 124.40 67.23 124.07 66.03 124.70 C 60.82 129.94 55.62 135.20 50.34 140.37 C 49.51 141.10 49.06 142.13 48.54 143.07 C 48.63 114.71 48.56 86.35 48.58 57.98 C 48.83 54.41 50.79 50.58 54.42 49.45 Z" />
</g>
</svg>
