<?xml version="1.0" encoding="UTF-8" ?>
<!DOCTYPE svg PUBLIC "-//W3C//DTD SVG 1.1//EN" "http://www.w3.org/Graphics/SVG/1.1/DTD/svg11.dtd">
<svg width="192pt" height="192pt" viewBox="0 0 192 192" version="1.1" xmlns="http://www.w3.org/2000/svg">
<g id="#007f46ff">
<path fill="#007f46" opacity="1.00" d=" M 85.56 0.00 L 106.38 0.00 C 129.06 2.26 150.79 13.01 166.26 29.74 C 180.75 44.76 189.88 64.82 192.00 85.57 L 192.00 106.41 C 189.42 133.14 174.74 158.25 153.06 174.00 C 139.49 184.01 123.21 190.29 106.44 192.00 L 85.60 192.00 C 56.19 189.16 28.77 171.65 13.54 146.38 C 6.12 134.31 1.43 120.53 0.00 106.43 L 0.00 85.60 C 0.90 76.39 3.25 67.36 6.80 58.83 C 19.77 26.86 51.14 3.22 85.56 0.00 M 94.75 50.12 C 92.83 54.40 95.24 58.81 96.42 62.94 C 99.05 71.45 101.87 79.91 104.35 88.47 C 104.71 89.94 105.23 92.73 103.00 92.78 C 100.73 91.69 100.03 89.15 98.92 87.11 C 93.12 75.70 86.70 64.62 80.52 53.41 C 79.14 50.45 75.58 48.85 72.42 49.54 C 70.01 50.39 69.32 53.01 68.67 55.19 C 70.11 60.27 73.38 64.52 75.73 69.18 C 80.74 78.44 86.05 87.55 90.73 96.99 C 89.73 98.14 87.45 99.43 86.32 97.76 C 78.52 87.16 71.68 75.83 63.37 65.60 C 60.49 62.89 56.21 64.71 54.38 67.74 C 54.52 69.64 54.11 71.78 55.25 73.46 C 62.26 83.89 69.56 94.13 76.51 104.60 C 77.32 105.76 77.64 107.07 77.47 108.51 C 76.84 108.47 75.59 108.38 74.96 108.34 C 69.93 103.87 66.25 98.12 61.89 93.03 C 59.62 90.54 58.06 87.17 54.86 85.72 C 50.44 84.33 45.74 89.78 48.04 93.95 C 50.73 98.48 54.30 102.41 57.24 106.78 C 63.67 116.17 70.96 124.94 79.05 132.94 C 84.49 138.83 91.76 143.63 100.06 143.52 C 108.75 144.29 116.23 138.91 122.41 133.48 C 126.09 130.23 128.34 125.71 129.82 121.10 C 131.11 114.74 135.09 109.44 137.88 103.70 C 140.05 99.13 142.65 94.76 144.57 90.08 C 144.32 85.25 137.33 82.51 133.99 86.09 C 129.81 91.88 128.75 99.53 123.75 104.77 C 123.27 104.65 122.31 104.40 121.83 104.27 C 121.58 103.67 121.07 102.47 120.82 101.87 C 116.54 90.74 113.15 79.30 110.08 67.78 C 108.52 62.19 107.48 56.40 105.04 51.09 C 104.18 49.10 102.17 47.66 100.03 47.44 C 97.97 47.61 96.37 49.01 94.75 50.12 Z" />
</g>
<g id="#ffffffff">
<path fill="#ffffff" opacity="1.00" d=" M 94.75 50.12 C 96.37 49.01 97.97 47.61 100.03 47.44 C 102.17 47.66 104.18 49.10 105.04 51.09 C 107.48 56.40 108.52 62.19 110.08 67.78 C 113.15 79.30 116.54 90.74 120.82 101.87 C 121.07 102.47 121.58 103.67 121.83 104.27 C 122.31 104.40 123.27 104.65 123.75 104.77 C 128.75 99.53 129.81 91.88 133.99 86.09 C 137.33 82.51 144.32 85.25 144.57 90.08 C 142.65 94.76 140.05 99.13 137.88 103.70 C 135.09 109.44 131.11 114.74 129.82 121.10 C 128.34 125.71 126.09 130.23 122.41 133.48 C 116.23 138.91 108.75 144.29 100.06 143.52 C 91.76 143.63 84.49 138.83 79.05 132.94 C 70.96 124.94 63.67 116.17 57.24 106.78 C 54.30 102.41 50.73 98.48 48.04 93.95 C 45.74 89.78 50.44 84.33 54.86 85.72 C 58.06 87.17 59.62 90.54 61.89 93.03 C 66.25 98.12 69.93 103.87 74.96 108.34 C 75.59 108.38 76.84 108.47 77.47 108.51 C 77.64 107.07 77.32 105.76 76.51 104.60 C 69.56 94.13 62.26 83.89 55.25 73.46 C 54.11 71.78 54.52 69.64 54.38 67.74 C 56.21 64.71 60.49 62.89 63.37 65.60 C 71.68 75.83 78.52 87.16 86.32 97.76 C 87.45 99.43 89.73 98.14 90.73 96.99 C 86.05 87.55 80.74 78.44 75.73 69.18 C 73.38 64.52 70.11 60.27 68.67 55.19 C 69.32 53.01 70.01 50.39 72.42 49.54 C 75.58 48.85 79.14 50.45 80.52 53.41 C 86.70 64.62 93.12 75.70 98.92 87.11 C 100.03 89.15 100.73 91.69 103.00 92.78 C 105.23 92.73 104.71 89.94 104.35 88.47 C 101.87 79.91 99.05 71.45 96.42 62.94 C 95.24 58.81 92.83 54.40 94.75 50.12 Z" />
</g>
</svg>
