<?xml version="1.0" encoding="UTF-8" ?>
<!DOCTYPE svg PUBLIC "-//W3C//DTD SVG 1.1//EN" "http://www.w3.org/Graphics/SVG/1.1/DTD/svg11.dtd">
<svg width="192pt" height="192pt" viewBox="0 0 192 192" version="1.1" xmlns="http://www.w3.org/2000/svg">
<g id="#007f46ff">
<path fill="#007f46" opacity="1.00" d=" M 85.68 0.00 L 106.26 0.00 C 128.21 2.32 149.44 12.26 164.75 28.24 C 180.16 43.43 189.69 64.21 192.00 85.66 L 192.00 106.27 C 189.69 127.98 179.97 148.99 164.27 164.24 C 149.03 179.94 128.03 189.66 106.34 192.00 L 85.71 192.00 C 64.02 189.69 43.02 179.97 27.78 164.28 C 12.06 149.04 2.33 128.04 0.00 106.34 L 0.00 85.72 C 2.31 64.02 12.04 43.01 27.74 27.76 C 42.98 12.05 63.98 2.33 85.68 0.00 M 85.71 69.94 C 85.14 73.24 84.10 76.54 84.57 79.93 C 84.81 83.02 86.20 85.91 86.44 88.98 C 76.06 99.73 65.33 110.16 54.80 120.77 C 52.60 123.14 49.70 125.15 48.60 128.31 C 48.30 131.92 48.58 135.55 48.48 139.17 C 49.53 140.99 50.99 142.48 52.82 143.52 C 56.43 143.42 60.06 143.70 63.66 143.41 C 66.70 142.38 68.67 139.62 70.93 137.51 C 74.55 137.25 78.85 138.53 81.79 135.73 C 84.39 132.97 83.29 128.94 83.56 125.54 C 87.03 125.32 91.18 126.41 93.92 123.61 C 96.58 120.37 95.17 115.92 95.54 112.10 C 98.01 109.90 100.26 107.42 103.06 105.62 C 105.03 105.47 106.86 106.53 108.79 106.81 C 113.15 108.06 117.76 107.49 122.07 106.31 C 132.45 103.33 140.75 94.43 142.88 83.84 C 146.30 69.31 136.36 53.58 122.08 49.70 C 107.06 44.75 89.74 54.85 85.71 69.94 Z" />
<path fill="#007f46" opacity="1.00" d=" M 110.12 68.88 C 112.05 66.31 114.33 64.03 116.92 62.12 C 122.17 65.35 126.63 69.85 129.88 75.09 C 127.97 77.67 125.69 79.94 123.13 81.88 C 117.83 78.69 113.35 74.15 110.12 68.88 Z" />
</g>
<g id="#ffffffff">
<path fill="#ffffff" opacity="1.00" d=" M 85.71 69.94 C 89.74 54.85 107.06 44.75 122.08 49.70 C 136.36 53.58 146.30 69.31 142.88 83.84 C 140.75 94.43 132.45 103.33 122.07 106.31 C 117.76 107.49 113.15 108.06 108.79 106.81 C 106.86 106.53 105.03 105.47 103.06 105.62 C 100.26 107.42 98.01 109.90 95.54 112.10 C 95.17 115.92 96.58 120.37 93.92 123.61 C 91.18 126.41 87.03 125.32 83.56 125.54 C 83.29 128.94 84.39 132.97 81.79 135.73 C 78.85 138.53 74.55 137.25 70.93 137.51 C 68.67 139.62 66.70 142.38 63.66 143.41 C 60.06 143.70 56.43 143.42 52.82 143.52 C 50.99 142.48 49.53 140.99 48.48 139.17 C 48.58 135.55 48.30 131.92 48.60 128.31 C 49.70 125.15 52.60 123.14 54.80 120.77 C 65.33 110.16 76.06 99.73 86.44 88.98 C 86.20 85.91 84.81 83.02 84.57 79.93 C 84.10 76.54 85.14 73.24 85.71 69.94 M 110.12 68.88 C 113.35 74.15 117.83 78.69 123.13 81.88 C 125.69 79.94 127.97 77.67 129.88 75.09 C 126.63 69.85 122.17 65.35 116.92 62.12 C 114.33 64.03 112.05 66.31 110.12 68.88 Z" />
</g>
</svg>
