<?xml version="1.0" encoding="UTF-8" ?>
<!DOCTYPE svg PUBLIC "-//W3C//DTD SVG 1.1//EN" "http://www.w3.org/Graphics/SVG/1.1/DTD/svg11.dtd">
<svg width="192pt" height="192pt" viewBox="0 0 192 192" version="1.1" xmlns="http://www.w3.org/2000/svg">
<g id="#007f46ff">
<path fill="#007f46" opacity="1.00" d=" M 85.64 0.00 L 106.30 0.00 C 135.07 2.54 161.82 19.49 177.30 43.71 C 185.51 56.21 190.60 70.78 192.00 85.66 L 192.00 106.31 C 189.43 135.32 172.21 162.28 147.65 177.70 C 135.31 185.68 120.98 190.62 106.35 192.00 L 85.70 192.00 C 56.96 189.46 30.23 172.54 14.73 148.34 C 6.51 135.83 1.40 121.25 0.00 106.35 L 0.00 85.70 C 1.39 70.78 6.50 56.19 14.73 43.66 C 30.21 19.48 56.92 2.57 85.64 0.00 M 92.44 47.64 C 86.29 48.48 80.73 53.58 80.69 60.02 C 80.60 73.67 80.62 87.34 80.53 101.00 C 79.93 107.63 83.19 114.94 89.79 117.22 C 95.27 118.62 101.64 117.96 106.00 114.06 C 108.98 111.63 110.23 107.72 110.13 103.97 C 110.13 89.31 110.24 74.65 110.18 60.00 C 110.06 51.24 100.34 45.93 92.44 47.64 M 77.06 118.92 C 81.23 123.55 87.70 124.29 92.92 127.01 C 92.86 131.04 92.91 135.07 92.91 139.10 C 88.37 139.52 83.81 139.28 79.26 139.25 C 79.30 141.08 79.29 142.92 79.26 144.75 C 90.08 144.64 100.91 144.64 111.74 144.75 C 111.70 142.91 111.70 141.07 111.74 139.24 C 107.21 139.35 102.66 139.54 98.14 139.11 C 98.13 135.08 98.19 131.05 98.08 127.03 C 103.74 124.27 110.71 123.03 114.70 117.57 C 120.50 110.58 119.65 100.98 119.68 92.50 C 117.99 92.56 116.30 92.62 114.62 92.67 C 114.42 100.53 115.62 109.62 110.06 116.04 C 102.90 123.38 89.70 123.84 82.09 116.93 C 76.18 110.33 76.55 100.90 76.67 92.63 C 74.93 92.64 73.19 92.64 71.45 92.65 C 71.26 101.52 70.62 111.90 77.06 118.92 Z" />
</g>
<g id="#ffffffff">
<path fill="#ffffff" opacity="1.00" d=" M 92.44 47.64 C 100.34 45.93 110.06 51.24 110.18 60.00 C 110.24 74.65 110.13 89.31 110.13 103.97 C 110.23 107.72 108.98 111.63 106.00 114.06 C 101.64 117.96 95.27 118.62 89.79 117.22 C 83.19 114.94 79.93 107.63 80.53 101.00 C 80.62 87.34 80.60 73.67 80.69 60.02 C 80.73 53.58 86.29 48.48 92.44 47.64 Z" />
<path fill="#ffffff" opacity="1.00" d=" M 77.06 118.92 C 70.62 111.90 71.26 101.52 71.45 92.65 C 73.19 92.64 74.93 92.64 76.67 92.63 C 76.55 100.90 76.18 110.33 82.09 116.93 C 89.70 123.84 102.90 123.38 110.06 116.04 C 115.62 109.62 114.42 100.53 114.62 92.67 C 116.30 92.62 117.99 92.56 119.68 92.50 C 119.65 100.98 120.50 110.58 114.70 117.57 C 110.71 123.03 103.74 124.27 98.08 127.03 C 98.19 131.05 98.13 135.08 98.14 139.11 C 102.66 139.54 107.21 139.35 111.74 139.24 C 111.70 141.07 111.70 142.91 111.74 144.75 C 100.91 144.64 90.08 144.64 79.26 144.75 C 79.29 142.92 79.30 141.08 79.26 139.25 C 83.81 139.28 88.37 139.52 92.91 139.10 C 92.91 135.07 92.86 131.04 92.92 127.01 C 87.70 124.29 81.23 123.55 77.06 118.92 Z" />
</g>
</svg>
