<?xml version="1.0" encoding="UTF-8" ?>
<!DOCTYPE svg PUBLIC "-//W3C//DTD SVG 1.1//EN" "http://www.w3.org/Graphics/SVG/1.1/DTD/svg11.dtd">
<svg width="192pt" height="192pt" viewBox="0 0 192 192" version="1.1" xmlns="http://www.w3.org/2000/svg">
<g id="#007f46ff">
<path fill="#007f46" opacity="1.00" d=" M 85.53 0.00 L 106.45 0.00 C 128.11 2.31 149.07 12.07 164.26 27.75 C 179.93 42.93 189.69 63.89 192.00 85.54 L 192.00 106.47 C 189.69 128.11 179.93 149.07 164.26 164.25 C 149.07 179.93 128.11 189.69 106.47 192.00 L 85.58 192.00 C 63.93 189.70 42.96 179.95 27.77 164.27 C 12.07 149.09 2.31 128.12 0.00 106.46 L 0.00 85.56 C 1.00 76.41 3.23 67.39 6.80 58.90 C 19.71 26.87 51.12 3.31 85.53 0.00 M 48.04 56.53 C 59.65 68.71 71.82 80.39 83.64 92.38 C 84.67 93.74 87.08 94.65 86.58 96.68 C 73.73 109.53 60.90 122.41 48.00 135.22 C 50.77 138.29 53.65 141.32 56.83 143.97 C 69.60 131.05 82.50 118.26 95.34 105.42 C 95.65 105.42 96.28 105.41 96.60 105.41 C 109.67 118.12 122.26 131.40 135.48 143.95 C 138.28 140.99 141.43 138.35 143.98 135.17 C 131.15 122.52 118.53 109.67 105.71 97.02 C 104.54 95.57 106.37 94.29 107.32 93.38 C 119.47 81.28 131.61 69.16 143.69 57.00 L 143.77 56.42 C 141.14 53.61 138.41 50.88 135.60 48.25 L 135.01 48.29 C 122.53 60.72 110.06 73.16 97.66 85.66 C 97.11 86.54 95.77 87.09 94.97 86.26 C 82.33 73.48 69.49 60.89 56.90 48.07 C 53.59 50.48 51.04 53.76 48.04 56.53 Z" />
</g>
<g id="#ffffffff">
<path fill="#ffffff" opacity="1.00" d=" M 48.04 56.53 C 51.04 53.76 53.59 50.48 56.90 48.07 C 69.49 60.89 82.33 73.48 94.97 86.26 C 95.77 87.09 97.11 86.54 97.66 85.66 C 110.06 73.16 122.53 60.72 135.01 48.29 L 135.60 48.25 C 138.41 50.88 141.14 53.61 143.77 56.42 L 143.69 57.00 C 131.61 69.16 119.47 81.28 107.32 93.38 C 106.37 94.29 104.54 95.57 105.71 97.02 C 118.53 109.67 131.15 122.52 143.98 135.17 C 141.43 138.35 138.28 140.99 135.48 143.95 C 122.26 131.40 109.67 118.12 96.60 105.41 C 96.28 105.41 95.65 105.42 95.34 105.42 C 82.50 118.26 69.60 131.05 56.83 143.97 C 53.65 141.32 50.77 138.29 48.00 135.22 C 60.90 122.41 73.73 109.53 86.58 96.68 C 87.08 94.65 84.67 93.74 83.64 92.38 C 71.82 80.39 59.65 68.71 48.04 56.53 Z" />
</g>
</svg>
