<?xml version="1.0" encoding="UTF-8" ?>
<!DOCTYPE svg PUBLIC "-//W3C//DTD SVG 1.1//EN" "http://www.w3.org/Graphics/SVG/1.1/DTD/svg11.dtd">
<svg width="192pt" height="192pt" viewBox="0 0 192 192" version="1.1" xmlns="http://www.w3.org/2000/svg">
<g id="#007f46ff">
<path fill="#007f46" opacity="1.00" d=" M 85.68 0.00 L 106.24 0.00 C 135.73 2.63 163.15 20.32 178.44 45.56 C 185.99 57.63 190.63 71.54 192.00 85.70 L 192.00 106.25 C 189.32 136.22 171.10 164.02 145.23 179.18 C 133.45 186.30 120.00 190.67 106.31 192.00 L 85.74 192.00 C 57.01 189.42 30.23 172.56 14.75 148.34 C 6.54 135.80 1.43 121.22 0.00 106.30 L 0.00 85.73 C 1.42 70.82 6.52 56.23 14.72 43.69 C 30.19 19.47 56.95 2.62 85.68 0.00 M 134.48 54.00 C 119.72 74.06 104.87 94.06 89.99 114.03 C 88.27 116.38 86.32 118.60 85.06 121.26 C 84.56 121.41 83.55 121.70 83.04 121.84 C 73.81 114.69 64.33 107.86 54.88 100.99 C 52.32 103.89 50.16 107.11 47.88 110.23 C 59.69 119.45 71.99 128.07 83.89 137.20 C 84.92 137.74 85.96 139.36 87.24 138.50 C 105.97 112.82 124.65 87.08 143.37 61.39 C 143.49 60.99 143.75 60.20 143.87 59.81 C 140.59 58.10 137.90 55.43 134.48 54.00 Z" />
</g>
<g id="#ffffffff">
<path fill="#ffffff" opacity="1.00" d=" M 134.48 54.00 C 137.90 55.43 140.59 58.10 143.87 59.81 C 143.75 60.20 143.49 60.99 143.37 61.39 C 124.65 87.08 105.97 112.82 87.24 138.50 C 85.96 139.36 84.92 137.74 83.89 137.20 C 71.99 128.07 59.69 119.45 47.88 110.23 C 50.16 107.11 52.32 103.89 54.88 100.99 C 64.33 107.86 73.81 114.69 83.04 121.84 C 83.55 121.70 84.56 121.41 85.06 121.26 C 86.32 118.60 88.27 116.38 89.99 114.03 C 104.87 94.06 119.72 74.06 134.48 54.00 Z" />
</g>
</svg>
