<?xml version="1.0" encoding="UTF-8" ?>
<!DOCTYPE svg PUBLIC "-//W3C//DTD SVG 1.1//EN" "http://www.w3.org/Graphics/SVG/1.1/DTD/svg11.dtd">
<svg width="192pt" height="192pt" viewBox="0 0 192 192" version="1.1" xmlns="http://www.w3.org/2000/svg">
<g id="#007f46ff">
<path fill="#007f46" opacity="1.00" d=" M 85.58 0.00 L 106.35 0.00 C 135.52 2.76 162.71 20.02 178.03 44.93 C 185.76 57.15 190.52 71.23 192.00 85.61 L 192.00 106.38 C 188.80 140.85 165.13 172.26 133.11 185.22 C 124.60 188.76 115.58 191.10 106.40 192.00 L 85.64 192.00 C 62.96 189.75 41.23 179.00 25.75 162.27 C 11.24 147.23 2.10 127.16 0.00 106.39 L 0.00 85.61 C 2.10 64.86 11.22 44.81 25.70 29.78 C 41.17 13.03 62.90 2.28 85.58 0.00 M 49.55 74.11 C 45.00 90.56 55.44 109.61 71.94 114.31 C 80.95 117.08 91.24 116.27 99.33 111.23 C 100.73 110.65 101.99 109.17 103.58 109.40 C 106.37 111.81 108.74 114.68 111.52 117.12 C 110.56 119.01 110.37 121.11 110.34 123.20 C 116.69 129.67 123.09 136.09 129.56 142.43 C 131.82 144.84 135.26 142.86 137.50 141.42 C 140.77 139.06 143.92 135.21 143.46 130.95 C 137.17 123.69 129.95 117.24 123.24 110.35 C 121.14 110.36 119.02 110.55 117.11 111.51 C 114.69 108.50 111.28 106.28 109.23 103.03 C 114.12 95.38 117.39 86.11 115.56 76.97 C 113.72 63.39 102.55 51.80 89.09 49.32 C 72.06 45.01 53.46 57.21 49.55 74.11 Z" />
<path fill="#007f46" opacity="1.00" d=" M 74.34 55.79 C 82.65 53.07 91.90 55.16 98.87 60.21 C 109.35 67.84 112.88 83.30 106.87 94.75 C 102.27 103.80 92.33 110.29 82.02 109.71 C 74.67 110.00 67.65 106.52 62.43 101.52 C 57.62 96.57 55.11 89.78 54.57 82.96 C 54.30 70.83 62.76 59.35 74.34 55.79 Z" />
</g>
<g id="#ffffffff">
<path fill="#ffffff" opacity="1.00" d=" M 49.55 74.11 C 53.46 57.21 72.06 45.01 89.09 49.32 C 102.55 51.80 113.72 63.39 115.56 76.97 C 117.39 86.11 114.12 95.38 109.23 103.03 C 111.28 106.28 114.69 108.50 117.11 111.51 C 119.02 110.55 121.14 110.36 123.24 110.35 C 129.95 117.24 137.17 123.69 143.46 130.95 C 143.92 135.21 140.77 139.06 137.50 141.42 C 135.26 142.86 131.82 144.84 129.56 142.43 C 123.09 136.09 116.69 129.67 110.34 123.20 C 110.37 121.11 110.56 119.01 111.52 117.12 C 108.74 114.68 106.37 111.81 103.58 109.40 C 101.99 109.17 100.73 110.65 99.33 111.23 C 91.24 116.27 80.95 117.08 71.94 114.31 C 55.44 109.61 45.00 90.56 49.55 74.11 M 74.34 55.79 C 62.76 59.35 54.30 70.83 54.57 82.96 C 55.11 89.78 57.62 96.57 62.43 101.52 C 67.65 106.52 74.67 110.00 82.02 109.71 C 92.33 110.29 102.27 103.80 106.87 94.75 C 112.88 83.30 109.35 67.84 98.87 60.21 C 91.90 55.16 82.65 53.07 74.34 55.79 Z" />
</g>
</svg>
