<?xml version="1.0" encoding="UTF-8" ?>
<!DOCTYPE svg PUBLIC "-//W3C//DTD SVG 1.1//EN" "http://www.w3.org/Graphics/SVG/1.1/DTD/svg11.dtd">
<svg width="192pt" height="192pt" viewBox="0 0 192 192" version="1.1" xmlns="http://www.w3.org/2000/svg">
<g id="#007f46ff">
<path fill="#007f46" opacity="1.00" d=" M 85.60 0.00 L 106.36 0.00 C 135.05 2.70 161.79 19.45 177.25 43.67 C 185.42 56.19 190.49 70.72 192.00 85.58 L 192.00 106.37 C 189.90 127.39 180.56 147.70 165.75 162.78 C 150.34 179.24 128.81 189.77 106.39 192.00 L 85.60 192.00 C 56.95 189.28 30.22 172.55 14.76 148.35 C 6.58 135.83 1.51 121.29 0.00 106.42 L 0.00 85.60 C 1.51 70.73 6.57 56.20 14.74 43.69 C 30.19 19.47 56.93 2.72 85.60 0.00 M 84.55 48.46 C 84.16 53.41 83.61 58.40 82.37 63.21 C 79.20 64.98 76.51 67.88 72.99 68.83 C 68.29 68.26 64.56 64.76 59.91 63.86 C 55.68 69.95 51.63 76.19 47.96 82.62 C 51.27 85.07 54.25 87.95 57.55 90.42 C 61.46 92.86 59.40 98.35 59.30 102.11 C 55.82 105.15 51.81 107.56 48.05 110.25 C 51.33 117.09 56.04 123.14 59.71 129.78 C 64.38 129.07 68.35 126.05 73.00 125.46 C 76.24 126.60 79.07 128.66 82.30 129.83 C 82.72 130.89 83.38 131.90 83.40 133.08 C 83.51 136.94 84.73 140.67 84.64 144.55 C 92.22 144.44 99.79 144.32 107.37 144.29 C 108.52 139.90 108.44 135.31 109.66 130.93 C 113.11 129.10 116.32 126.62 120.06 125.48 C 123.45 126.01 126.48 128.06 129.85 128.86 C 130.83 129.24 131.82 129.59 132.81 129.94 C 136.36 123.55 140.73 117.52 143.87 110.99 C 140.35 107.75 135.92 105.47 132.46 102.07 C 132.98 98.59 131.54 94.58 133.53 91.48 C 136.98 88.57 140.39 85.60 144.02 82.90 C 140.67 76.01 136.19 69.72 132.24 63.17 C 127.93 65.33 123.53 67.30 119.28 69.57 C 116.11 67.41 112.85 65.40 109.67 63.26 C 108.94 58.31 108.15 53.37 107.50 48.41 C 99.85 48.52 92.20 48.43 84.55 48.46 Z" />
<path fill="#007f46" opacity="1.00" d=" M 90.40 77.72 C 96.29 76.75 103.08 77.09 107.73 81.29 C 112.65 85.25 116.03 91.53 115.44 97.95 C 115.07 107.92 106.04 116.59 96.04 116.47 C 85.56 116.98 75.57 107.65 76.16 97.01 C 75.46 88.15 82.21 80.24 90.40 77.72 Z" />
</g>
<g id="#ffffffff">
<path fill="#ffffff" opacity="1.00" d=" M 84.55 48.46 C 92.20 48.43 99.85 48.52 107.50 48.41 C 108.15 53.37 108.94 58.31 109.67 63.26 C 112.85 65.40 116.11 67.41 119.28 69.57 C 123.53 67.30 127.93 65.33 132.24 63.17 C 136.19 69.72 140.67 76.01 144.02 82.90 C 140.39 85.60 136.98 88.57 133.53 91.48 C 131.54 94.58 132.98 98.59 132.46 102.07 C 135.92 105.47 140.35 107.75 143.87 110.99 C 140.73 117.52 136.36 123.55 132.81 129.94 C 131.82 129.59 130.83 129.24 129.85 128.86 C 126.48 128.06 123.45 126.01 120.06 125.48 C 116.32 126.62 113.11 129.10 109.66 130.93 C 108.44 135.31 108.52 139.90 107.37 144.29 C 99.79 144.32 92.22 144.44 84.64 144.55 C 84.73 140.67 83.51 136.94 83.40 133.08 C 83.38 131.90 82.72 130.89 82.30 129.83 C 79.07 128.66 76.24 126.60 73.00 125.46 C 68.35 126.05 64.38 129.07 59.71 129.78 C 56.04 123.14 51.33 117.09 48.05 110.25 C 51.81 107.56 55.82 105.15 59.30 102.11 C 59.40 98.35 61.46 92.86 57.55 90.42 C 54.25 87.95 51.27 85.07 47.96 82.62 C 51.63 76.19 55.68 69.95 59.91 63.86 C 64.56 64.76 68.29 68.26 72.99 68.83 C 76.51 67.88 79.20 64.98 82.37 63.21 C 83.61 58.40 84.16 53.41 84.55 48.46 M 90.40 77.72 C 82.21 80.24 75.46 88.15 76.16 97.01 C 75.57 107.65 85.56 116.98 96.04 116.47 C 106.04 116.59 115.07 107.92 115.44 97.95 C 116.03 91.53 112.65 85.25 107.73 81.29 C 103.08 77.09 96.29 76.75 90.40 77.72 Z" />
</g>
</svg>
