<?xml version="1.0" encoding="UTF-8" ?>
<!DOCTYPE svg PUBLIC "-//W3C//DTD SVG 1.1//EN" "http://www.w3.org/Graphics/SVG/1.1/DTD/svg11.dtd">
<svg width="192pt" height="192pt" viewBox="0 0 192 192" version="1.1" xmlns="http://www.w3.org/2000/svg">
<g id="#007f46ff">
<path fill="#007f46" opacity="1.00" d=" M 85.80 0.00 L 106.16 0.00 C 132.71 2.57 157.75 16.90 173.54 38.37 C 183.86 52.11 190.22 68.73 192.00 85.81 L 192.00 106.15 C 190.24 123.23 183.88 139.84 173.57 153.59 C 157.80 175.07 132.75 189.40 106.20 192.00 L 85.84 192.00 C 56.37 189.16 28.84 171.75 13.59 146.40 C 6.06 134.28 1.51 120.37 0.00 106.20 L 0.00 85.83 C 0.97 76.57 3.24 67.46 6.83 58.87 C 19.77 26.77 51.31 3.21 85.80 0.00 M 124.49 59.49 C 124.62 85.46 124.52 111.44 124.54 137.41 C 130.86 137.40 137.18 137.43 143.51 137.51 C 143.42 111.50 143.41 85.50 143.52 59.49 C 140.24 58.70 137.40 56.45 134.00 56.20 C 130.60 56.46 127.76 58.69 124.49 59.49 M 73.51 78.55 C 73.55 98.20 73.59 117.85 73.49 137.51 C 79.83 137.42 86.17 137.42 92.51 137.51 C 92.41 117.85 92.44 98.20 92.49 78.55 C 89.33 76.97 86.21 75.32 82.99 73.89 C 79.78 75.34 76.66 76.98 73.51 78.55 M 98.50 94.55 C 98.57 108.87 98.59 123.19 98.49 137.51 C 104.83 137.42 111.17 137.42 117.51 137.51 C 117.41 123.19 117.43 108.87 117.50 94.55 C 114.27 92.88 111.35 90.53 108.02 89.14 C 104.66 90.48 101.75 92.90 98.50 94.55 M 48.51 109.55 C 48.55 118.87 48.59 128.19 48.49 137.51 C 54.83 137.42 61.17 137.42 67.51 137.51 C 67.41 128.19 67.45 118.87 67.49 109.55 C 64.34 107.98 61.22 106.35 58.01 104.89 C 54.79 106.33 51.67 107.98 48.51 109.55 Z" />
</g>
<g id="#ffffffff">
<path fill="#ffffff" opacity="1.00" d=" M 124.49 59.49 C 127.76 58.69 130.60 56.46 134.00 56.20 C 137.40 56.45 140.24 58.70 143.52 59.49 C 143.41 85.50 143.42 111.50 143.51 137.51 C 137.18 137.43 130.86 137.40 124.54 137.41 C 124.52 111.44 124.62 85.46 124.49 59.49 Z" />
<path fill="#ffffff" opacity="1.00" d=" M 73.51 78.55 C 76.66 76.98 79.78 75.34 82.99 73.89 C 86.21 75.32 89.33 76.97 92.49 78.55 C 92.44 98.20 92.41 117.85 92.51 137.51 C 86.17 137.42 79.83 137.42 73.49 137.51 C 73.59 117.85 73.55 98.20 73.51 78.55 Z" />
<path fill="#ffffff" opacity="1.00" d=" M 98.50 94.55 C 101.75 92.90 104.66 90.48 108.02 89.14 C 111.35 90.53 114.27 92.88 117.50 94.55 C 117.43 108.87 117.41 123.19 117.51 137.51 C 111.17 137.42 104.83 137.42 98.49 137.51 C 98.59 123.19 98.57 108.87 98.50 94.55 Z" />
<path fill="#ffffff" opacity="1.00" d=" M 48.51 109.55 C 51.67 107.98 54.79 106.33 58.01 104.89 C 61.22 106.35 64.34 107.98 67.49 109.55 C 67.45 118.87 67.41 128.19 67.51 137.51 C 61.17 137.42 54.83 137.42 48.49 137.51 C 48.59 128.19 48.55 118.87 48.51 109.55 Z" />
</g>
</svg>
