<?xml version="1.0" encoding="UTF-8" ?>
<!DOCTYPE svg PUBLIC "-//W3C//DTD SVG 1.1//EN" "http://www.w3.org/Graphics/SVG/1.1/DTD/svg11.dtd">
<svg width="192pt" height="192pt" viewBox="0 0 192 192" version="1.1" xmlns="http://www.w3.org/2000/svg">
<g id="#007f46ff">
<path fill="#007f46" opacity="1.00" d=" M 85.62 0.00 L 106.35 0.00 C 135.52 2.91 162.77 20.03 178.06 45.02 C 185.76 57.23 190.39 71.29 192.00 85.61 L 192.00 106.34 C 188.72 140.53 165.54 171.81 133.79 184.89 C 125.08 188.61 115.81 190.93 106.41 192.00 L 85.67 192.00 C 59.42 189.32 34.61 175.30 18.85 154.15 C 8.36 140.34 1.88 123.60 0.00 106.38 L 0.00 85.64 C 2.69 59.16 16.96 34.18 38.40 18.44 C 52.09 8.15 68.62 1.86 85.62 0.00 M 58.60 52.88 C 58.52 81.64 58.55 110.40 58.58 139.16 C 59.74 141.52 61.64 143.29 64.01 144.43 C 85.39 144.43 106.77 144.50 128.15 144.39 C 131.43 142.87 134.46 139.95 134.37 136.07 C 134.47 118.72 134.31 101.36 134.42 84.01 C 134.25 80.54 134.93 76.46 132.35 73.67 C 123.70 64.93 114.89 56.34 106.29 47.54 C 92.23 47.59 78.16 47.54 64.09 47.57 C 61.71 48.72 59.61 50.36 58.60 52.88 Z" />
<path fill="#007f46" opacity="1.00" d=" M 70.46 88.54 C 87.48 88.45 104.49 88.49 121.50 88.53 C 121.65 90.01 122.43 93.08 119.96 92.82 C 115.26 92.38 110.70 93.85 106.01 93.51 C 97.38 93.42 88.74 93.63 80.11 93.43 C 77.05 92.79 73.92 92.66 70.80 92.82 C 70.38 91.43 70.34 89.98 70.46 88.54 Z" />
<path fill="#007f46" opacity="1.00" d=" M 73.06 103.49 C 70.47 104.26 70.43 98.70 73.08 99.46 C 89.22 99.52 105.38 99.25 121.51 99.60 C 121.51 100.55 121.50 102.45 121.50 103.40 C 105.36 103.64 89.21 103.45 73.06 103.49 Z" />
<path fill="#007f46" opacity="1.00" d=" M 71.17 113.84 C 69.28 112.42 70.81 109.10 73.07 109.40 C 89.22 109.44 105.38 109.29 121.53 109.48 C 121.58 111.15 121.58 112.83 121.55 114.50 C 106.05 114.76 90.55 114.50 75.05 114.63 C 73.77 114.47 72.10 115.03 71.17 113.84 Z" />
<path fill="#007f46" opacity="1.00" d=" M 70.83 120.27 C 78.47 119.26 86.19 119.39 93.89 119.58 C 96.02 120.13 98.60 119.70 100.43 120.92 C 100.46 121.79 100.52 123.52 100.55 124.39 C 90.51 124.57 80.45 124.59 70.40 124.38 C 70.47 123.00 70.61 121.63 70.83 120.27 Z" />
</g>
<g id="#ffffffff">
<path fill="#ffffff" opacity="1.00" d=" M 58.60 52.88 C 59.61 50.36 61.71 48.72 64.09 47.57 C 78.16 47.54 92.23 47.59 106.29 47.54 C 114.89 56.34 123.70 64.93 132.35 73.67 C 134.93 76.46 134.25 80.54 134.42 84.01 C 134.31 101.36 134.47 118.72 134.37 136.07 C 134.46 139.95 131.43 142.87 128.15 144.39 C 106.77 144.50 85.39 144.43 64.01 144.43 C 61.64 143.29 59.74 141.52 58.58 139.16 C 58.55 110.40 58.52 81.64 58.60 52.88 M 70.46 88.54 C 70.34 89.98 70.38 91.43 70.80 92.82 C 73.92 92.66 77.05 92.79 80.11 93.43 C 88.74 93.63 97.38 93.42 106.01 93.51 C 110.70 93.85 115.26 92.38 119.96 92.82 C 122.43 93.08 121.65 90.01 121.50 88.53 C 104.49 88.49 87.48 88.45 70.46 88.54 M 73.06 103.49 C 89.21 103.45 105.36 103.64 121.50 103.40 C 121.50 102.45 121.51 100.55 121.51 99.60 C 105.38 99.25 89.22 99.52 73.08 99.46 C 70.43 98.70 70.47 104.26 73.06 103.49 M 71.17 113.84 C 72.10 115.03 73.77 114.47 75.05 114.63 C 90.55 114.50 106.05 114.76 121.55 114.50 C 121.58 112.83 121.58 111.15 121.53 109.48 C 105.38 109.29 89.22 109.44 73.07 109.40 C 70.81 109.10 69.28 112.42 71.17 113.84 M 70.83 120.27 C 70.61 121.63 70.47 123.00 70.40 124.38 C 80.45 124.59 90.51 124.57 100.55 124.39 C 100.52 123.52 100.46 121.79 100.43 120.92 C 98.60 119.70 96.02 120.13 93.89 119.58 C 86.19 119.39 78.47 119.26 70.83 120.27 Z" />
</g>
</svg>
