<?xml version="1.0" encoding="UTF-8" ?>
<!DOCTYPE svg PUBLIC "-//W3C//DTD SVG 1.1//EN" "http://www.w3.org/Graphics/SVG/1.1/DTD/svg11.dtd">
<svg width="192pt" height="192pt" viewBox="0 0 192 192" version="1.1" xmlns="http://www.w3.org/2000/svg">
<g id="#007f46ff">
<path fill="#007f46" opacity="1.00" d=" M 85.81 0.00 L 106.13 0.00 C 140.45 3.14 171.83 26.47 184.94 58.29 C 188.64 67.05 191.03 76.34 192.00 85.80 L 192.00 106.13 C 189.79 127.90 179.99 148.96 164.27 164.24 C 149.01 179.97 127.95 189.77 106.19 192.00 L 85.86 192.00 C 51.58 188.86 20.23 165.57 7.09 133.79 C 3.38 125.01 0.98 115.68 0.00 106.19 L 0.00 85.86 C 2.21 64.09 12.01 43.02 27.75 27.75 C 43.01 12.02 64.06 2.23 85.81 0.00 M 50.58 49.57 C 48.71 56.56 50.20 63.88 49.60 71.02 C 49.22 74.15 49.69 77.25 50.80 80.20 C 53.50 80.81 56.28 80.53 59.02 80.53 C 82.73 80.51 106.44 80.55 130.15 80.51 C 130.50 80.05 131.19 79.14 131.53 78.69 C 131.52 74.99 131.52 71.28 131.52 67.58 C 132.36 67.57 133.20 67.55 134.04 67.53 C 134.79 68.32 135.53 69.11 136.28 69.90 C 138.63 74.77 136.70 80.03 136.33 85.08 C 134.24 87.35 130.88 87.56 127.98 87.50 C 123.93 87.38 119.83 87.80 115.82 87.05 C 108.95 86.23 101.97 86.67 95.21 88.03 C 93.75 88.49 92.05 88.72 91.07 90.04 C 87.62 93.82 88.59 99.29 87.54 103.93 C 83.74 105.14 83.23 109.52 83.61 112.94 C 84.23 122.74 82.64 132.69 84.63 142.37 C 88.78 143.41 93.09 143.57 97.21 142.29 C 97.93 130.85 97.34 119.35 97.52 107.88 C 97.96 105.47 94.95 105.05 93.46 103.99 C 93.40 101.05 93.47 98.10 93.54 95.16 C 94.37 94.30 95.19 93.43 96.01 92.56 C 108.01 92.14 120.03 92.59 132.04 92.35 C 136.07 92.29 140.15 90.20 141.35 86.13 C 143.07 79.98 142.89 73.32 141.29 67.16 C 138.83 64.23 135.24 62.82 131.56 62.21 C 131.51 58.25 131.51 54.29 131.55 50.34 C 127.74 48.03 123.21 48.88 118.99 48.76 C 98.64 48.81 78.30 48.83 57.96 48.73 C 55.47 48.69 53.02 49.18 50.58 49.57 Z" />
</g>
<g id="#ffffffff">
<path fill="#ffffff" opacity="1.00" d=" M 50.58 49.57 C 53.02 49.18 55.47 48.69 57.96 48.73 C 78.30 48.83 98.64 48.81 118.99 48.76 C 123.21 48.88 127.74 48.03 131.55 50.34 C 131.51 54.29 131.51 58.25 131.56 62.21 C 135.24 62.82 138.83 64.23 141.29 67.16 C 142.89 73.32 143.07 79.98 141.35 86.13 C 140.15 90.20 136.07 92.29 132.04 92.35 C 120.03 92.59 108.01 92.14 96.01 92.56 C 95.19 93.43 94.37 94.30 93.54 95.16 C 93.47 98.10 93.40 101.05 93.46 103.99 C 94.95 105.05 97.96 105.47 97.52 107.88 C 97.34 119.35 97.93 130.85 97.21 142.29 C 93.09 143.57 88.78 143.41 84.63 142.37 C 82.64 132.69 84.23 122.74 83.61 112.94 C 83.23 109.52 83.74 105.14 87.54 103.93 C 88.59 99.29 87.62 93.82 91.07 90.04 C 92.05 88.72 93.75 88.49 95.21 88.03 C 101.97 86.67 108.95 86.23 115.82 87.05 C 119.83 87.80 123.93 87.38 127.98 87.50 C 130.88 87.56 134.24 87.35 136.33 85.08 C 136.70 80.03 138.63 74.77 136.28 69.90 C 135.53 69.11 134.79 68.32 134.04 67.53 C 133.20 67.55 132.36 67.57 131.52 67.58 C 131.52 71.28 131.52 74.99 131.53 78.69 C 131.19 79.14 130.50 80.05 130.15 80.51 C 106.44 80.55 82.73 80.51 59.02 80.53 C 56.28 80.53 53.50 80.81 50.80 80.20 C 49.69 77.25 49.22 74.15 49.60 71.02 C 50.20 63.88 48.71 56.56 50.58 49.57 Z" />
</g>
</svg>
