<?xml version="1.0" encoding="UTF-8" ?>
<!DOCTYPE svg PUBLIC "-//W3C//DTD SVG 1.1//EN" "http://www.w3.org/Graphics/SVG/1.1/DTD/svg11.dtd">
<svg width="192pt" height="192pt" viewBox="0 0 192 192" version="1.1" xmlns="http://www.w3.org/2000/svg">
<g id="#007f46ff">
<path fill="#007f46" opacity="1.00" d=" M 85.56 0.00 L 106.40 0.00 C 140.82 3.29 172.24 26.82 185.18 58.85 C 188.73 67.37 191.00 76.39 192.00 85.55 L 192.00 106.42 C 188.70 140.84 165.16 172.26 133.12 185.19 C 124.62 188.73 115.61 191.00 106.46 192.00 L 85.61 192.00 C 64.39 189.74 43.83 180.36 28.71 165.22 C 12.51 149.90 2.35 128.56 0.00 106.44 L 0.00 85.59 C 0.99 76.42 3.26 67.40 6.81 58.88 C 19.74 26.84 51.15 3.31 85.56 0.00 M 67.93 55.63 C 65.72 56.23 66.33 58.81 68.00 59.66 C 74.56 56.18 81.57 53.35 89.01 52.56 C 97.36 52.19 105.97 52.00 113.89 55.10 C 117.73 56.13 121.01 59.15 125.16 58.87 C 125.26 58.36 125.45 57.35 125.54 56.85 C 122.68 54.27 118.61 53.13 115.01 51.75 C 99.69 46.18 82.23 48.02 67.93 55.63 M 53.04 83.08 C 53.53 83.43 54.52 84.14 55.01 84.49 L 56.05 84.44 C 61.75 76.88 69.16 70.29 78.19 67.09 C 87.37 63.54 97.57 63.54 107.16 65.10 C 118.92 67.41 128.87 74.98 136.00 84.38 C 136.72 84.06 138.17 83.44 138.89 83.12 C 134.37 74.96 126.60 68.91 118.19 65.11 C 96.01 54.60 66.08 61.68 53.04 83.08 M 72.90 78.86 C 63.66 85.45 56.81 96.37 57.44 108.00 C 57.00 114.93 58.60 121.79 60.91 128.29 C 61.68 128.34 63.23 128.46 64.00 128.51 C 62.81 120.38 59.16 112.21 61.17 103.88 C 62.18 95.27 67.27 87.22 74.42 82.36 C 83.65 75.30 96.50 73.61 107.42 77.28 C 122.06 81.93 133.45 97.30 130.43 112.95 C 128.54 115.11 126.43 117.09 123.90 118.49 C 121.64 118.47 119.38 118.46 117.12 118.49 C 114.56 117.05 112.36 115.08 110.57 112.75 C 110.06 109.13 110.17 105.14 108.04 102.00 C 105.62 97.87 100.81 95.08 95.99 95.40 C 88.43 94.86 81.64 101.57 81.58 109.07 C 81.92 115.88 83.70 122.78 87.83 128.33 C 92.74 136.26 101.29 141.16 110.12 143.56 C 110.51 143.24 111.29 142.59 111.68 142.26 C 112.12 139.45 108.92 139.63 107.14 138.83 C 96.32 135.40 88.38 125.66 85.64 114.83 C 85.34 110.40 84.94 105.65 87.84 101.92 C 90.22 100.00 93.11 99.09 96.04 98.40 C 100.81 99.45 106.15 102.51 106.34 108.00 C 106.18 113.98 110.20 119.96 116.06 121.57 C 123.04 124.16 131.60 120.07 133.89 112.96 C 135.85 106.12 133.75 98.79 130.70 92.57 C 125.46 81.91 114.70 74.42 103.08 72.47 C 92.70 70.10 81.65 73.05 72.90 78.86 M 78.67 89.70 C 72.34 94.69 69.07 102.97 69.45 110.93 C 70.06 119.04 72.36 127.20 77.23 133.83 C 79.74 137.20 82.13 141.36 86.32 142.74 C 87.81 139.47 84.82 137.26 82.84 135.17 C 76.68 127.97 72.76 118.60 73.34 109.00 C 72.65 100.97 78.18 93.64 84.89 89.82 C 89.74 87.01 95.53 86.99 100.94 87.60 C 109.23 89.19 116.23 95.95 118.38 104.04 C 118.72 106.43 118.04 112.05 122.04 110.25 C 123.22 107.91 122.14 105.28 121.68 102.90 C 119.67 94.11 112.35 87.05 103.76 84.64 C 95.27 81.75 85.52 84.10 78.67 89.70 M 94.38 107.16 C 93.18 112.99 95.66 119.20 99.14 123.86 C 105.46 131.90 117.02 135.93 126.76 132.26 C 126.66 131.68 126.46 130.52 126.36 129.94 C 121.73 128.69 116.38 130.68 111.69 128.76 C 103.25 125.55 97.00 116.78 97.43 107.61 C 96.41 107.45 95.39 107.31 94.38 107.16 Z" />
</g>
<g id="#fefffeff">
<path fill="#fefffe" opacity="1.00" d=" M 67.93 55.63 C 82.23 48.02 99.69 46.18 115.01 51.75 C 118.61 53.13 122.68 54.27 125.54 56.85 C 125.45 57.35 125.26 58.36 125.16 58.87 C 121.01 59.15 117.73 56.13 113.89 55.10 C 105.97 52.00 97.36 52.19 89.01 52.56 C 81.57 53.35 74.56 56.18 68.00 59.66 C 66.33 58.81 65.72 56.23 67.93 55.63 Z" />
<path fill="#fefffe" opacity="1.00" d=" M 53.04 83.08 C 66.08 61.68 96.01 54.60 118.19 65.11 C 126.60 68.91 134.37 74.96 138.89 83.12 C 138.17 83.44 136.72 84.06 136.00 84.38 C 128.87 74.98 118.92 67.41 107.16 65.10 C 97.57 63.54 87.37 63.54 78.19 67.09 C 69.16 70.29 61.75 76.88 56.05 84.44 L 55.01 84.49 C 54.52 84.14 53.53 83.43 53.04 83.08 Z" />
<path fill="#fefffe" opacity="1.00" d=" M 72.90 78.86 C 81.65 73.05 92.70 70.10 103.08 72.47 C 114.70 74.42 125.46 81.91 130.70 92.57 C 133.75 98.79 135.85 106.12 133.89 112.96 C 131.60 120.07 123.04 124.16 116.06 121.57 C 110.20 119.96 106.18 113.98 106.34 108.00 C 106.15 102.51 100.81 99.45 96.04 98.40 C 93.11 99.09 90.22 100.00 87.84 101.92 C 84.94 105.65 85.34 110.40 85.64 114.83 C 88.38 125.66 96.32 135.40 107.14 138.83 C 108.92 139.63 112.12 139.45 111.68 142.26 C 111.29 142.59 110.51 143.24 110.12 143.56 C 101.29 141.16 92.74 136.26 87.83 128.33 C 83.70 122.78 81.92 115.88 81.58 109.07 C 81.64 101.57 88.43 94.86 95.99 95.40 C 100.81 95.08 105.62 97.87 108.04 102.00 C 110.17 105.14 110.06 109.13 110.57 112.75 C 112.36 115.08 114.56 117.05 117.12 118.49 C 119.38 118.46 121.64 118.47 123.90 118.49 C 126.43 117.09 128.54 115.11 130.43 112.95 C 133.45 97.30 122.06 81.93 107.42 77.28 C 96.50 73.61 83.65 75.30 74.42 82.36 C 67.27 87.22 62.18 95.27 61.17 103.88 C 59.16 112.21 62.81 120.38 64.00 128.51 C 63.23 128.46 61.68 128.34 60.91 128.29 C 58.60 121.79 57.00 114.93 57.44 108.00 C 56.81 96.37 63.66 85.45 72.90 78.86 Z" />
<path fill="#fefffe" opacity="1.00" d=" M 78.67 89.70 C 85.52 84.10 95.27 81.75 103.76 84.64 C 112.35 87.05 119.67 94.11 121.68 102.90 C 122.14 105.28 123.22 107.91 122.04 110.25 C 118.04 112.05 118.72 106.43 118.38 104.04 C 116.23 95.95 109.23 89.19 100.94 87.60 C 95.53 86.99 89.74 87.01 84.89 89.82 C 78.18 93.64 72.65 100.97 73.34 109.00 C 72.76 118.60 76.68 127.97 82.84 135.17 C 84.82 137.26 87.81 139.47 86.32 142.74 C 82.13 141.36 79.74 137.20 77.23 133.83 C 72.36 127.20 70.06 119.04 69.45 110.93 C 69.07 102.97 72.34 94.69 78.67 89.70 Z" />
<path fill="#fefffe" opacity="1.00" d=" M 94.38 107.16 C 95.39 107.31 96.41 107.45 97.43 107.61 C 97.00 116.78 103.25 125.55 111.69 128.76 C 116.38 130.68 121.73 128.69 126.36 129.94 C 126.46 130.52 126.66 131.68 126.76 132.26 C 117.02 135.93 105.46 131.90 99.14 123.86 C 95.66 119.20 93.18 112.99 94.38 107.16 Z" />
</g>
</svg>
