<?xml version="1.0" encoding="UTF-8" ?>
<!DOCTYPE svg PUBLIC "-//W3C//DTD SVG 1.1//EN" "http://www.w3.org/Graphics/SVG/1.1/DTD/svg11.dtd">
<svg width="192pt" height="192pt" viewBox="0 0 192 192" version="1.1" xmlns="http://www.w3.org/2000/svg">
<g id="#007f46ff">
<path fill="#007f46" opacity="1.00" d=" M 56.12 49.05 C 57.92 49.24 59.19 47.50 61.01 47.98 C 66.08 49.17 69.69 53.28 73.00 57.09 L 73.00 57.73 C 70.72 59.51 68.58 61.42 66.58 63.55 C 64.59 67.66 60.64 70.34 57.03 72.87 C 53.53 69.74 49.08 66.45 48.46 61.49 C 46.93 59.68 49.31 58.04 49.05 56.12 C 51.11 53.52 53.53 51.12 56.12 49.05 Z" />
<path fill="#007f46" opacity="1.00" d=" M 59.46 75.08 C 64.90 70.15 70.16 64.88 75.10 59.44 C 77.57 60.92 79.86 63.65 81.79 65.99 C 77.24 71.42 71.74 76.14 66.86 81.33 L 65.95 81.77 C 63.66 79.82 60.85 77.57 59.46 75.08 Z" />
<path fill="#007f46" opacity="1.00" d=" M 77.24 75.32 C 79.72 73.25 82.12 70.97 84.10 68.41 C 84.46 68.64 85.18 69.10 85.54 69.33 C 102.48 86.24 119.25 103.36 136.40 120.02 C 137.29 123.12 134.69 125.69 134.98 128.73 C 134.74 130.08 133.06 131.41 131.93 130.12 C 113.74 111.81 95.39 93.66 77.24 75.32 Z" />
<path fill="#007f46" opacity="1.00" d=" M 70.86 80.86 C 72.37 79.80 74.46 79.40 75.01 77.37 C 75.40 77.62 76.18 78.12 76.57 78.37 C 94.88 96.67 113.07 115.11 131.56 133.23 L 131.46 134.07 C 130.39 134.81 129.21 135.15 127.92 135.08 C 125.27 135.43 122.80 136.94 120.07 136.46 C 106.93 122.77 93.26 109.57 79.91 96.07 C 75.94 92.42 72.54 88.02 68.18 84.88 C 69.37 83.75 70.00 82.23 70.86 80.86 Z" />
<path fill="#007f46" opacity="1.00" d=" M 135.93 133.01 C 136.69 131.18 136.96 129.18 137.96 127.44 C 140.50 127.34 139.65 130.87 140.93 132.30 C 140.96 134.55 143.48 136.83 141.93 138.93 C 141.31 139.06 140.09 139.31 139.48 139.44 C 139.34 140.06 139.07 141.30 138.93 141.92 C 136.83 143.48 134.55 140.96 132.30 140.93 C 130.79 139.95 128.90 140.11 127.43 139.03 C 127.29 136.71 130.37 137.09 131.92 136.78 C 133.49 135.83 135.85 135.24 135.93 133.01 Z" />
<path fill="#007f46" opacity="1.00" d=" M 140.57 143.36 C 139.62 141.00 141.30 139.91 143.36 140.63 C 144.16 142.70 142.90 144.46 140.57 143.36 Z" />
</g>
</svg>
