<?xml version="1.0" encoding="UTF-8" ?>
<!DOCTYPE svg PUBLIC "-//W3C//DTD SVG 1.1//EN" "http://www.w3.org/Graphics/SVG/1.1/DTD/svg11.dtd">
<svg width="192pt" height="192pt" viewBox="0 0 192 192" version="1.1" xmlns="http://www.w3.org/2000/svg">
<g id="#007f46ff">
<path fill="#007f46" opacity="1.00" d=" M 126.56 50.33 C 127.73 49.91 128.81 50.68 129.91 50.95 C 131.02 55.24 131.79 59.63 132.13 64.06 C 124.42 65.46 116.72 66.95 108.97 68.17 C 107.95 63.46 105.96 58.33 107.75 53.59 C 114.02 52.47 120.29 51.43 126.56 50.33 Z" />
<path fill="#007f46" opacity="1.00" d=" M 47.95 51.93 C 54.72 49.90 61.98 51.52 68.96 50.98 C 69.65 51.66 70.34 52.36 71.03 53.05 C 70.91 56.93 71.18 60.83 70.92 64.71 C 70.25 65.77 69.28 66.21 68.04 66.02 C 61.46 65.92 54.87 66.15 48.30 65.92 C 47.99 65.62 47.38 65.01 47.08 64.70 C 47.07 60.45 46.33 55.99 47.95 51.93 Z" />
<path fill="#007f46" opacity="1.00" d=" M 80.03 50.98 C 86.36 51.05 92.69 50.93 99.01 51.01 C 100.35 50.87 101.31 52.11 101.91 53.12 C 102.11 56.97 102.09 60.85 101.93 64.70 C 100.95 66.58 98.76 65.91 97.05 66.03 C 91.13 65.89 85.21 66.17 79.29 65.92 C 78.99 65.62 78.38 65.01 78.08 64.70 C 77.82 60.82 78.08 56.92 77.98 53.03 C 78.66 52.35 79.35 51.66 80.03 50.98 Z" />
<path fill="#007f46" opacity="1.00" d=" M 112.80 70.26 C 119.55 69.46 126.15 67.74 132.89 66.86 C 133.57 69.55 133.99 72.29 134.13 75.05 C 126.52 76.37 118.94 78.06 111.28 79.02 C 109.36 77.32 109.67 74.43 109.65 72.11 C 109.74 70.51 111.67 70.58 112.80 70.26 Z" />
<path fill="#007f46" opacity="1.00" d=" M 46.97 68.84 C 54.96 68.28 63.04 68.29 71.03 68.84 C 70.56 71.47 72.21 75.10 69.70 76.92 C 62.58 77.07 55.43 77.07 48.30 76.92 C 45.79 75.10 47.44 71.47 46.97 68.84 Z" />
<path fill="#007f46" opacity="1.00" d=" M 77.96 68.84 C 85.95 68.28 94.05 68.29 102.04 68.84 C 102.00 71.56 102.00 74.28 102.00 77.00 C 94.00 77.00 86.00 77.00 78.00 77.00 C 78.00 74.28 78.00 71.56 77.96 68.84 Z" />
<path fill="#007f46" opacity="1.00" d=" M 110.88 82.09 C 118.49 80.74 126.10 79.31 133.71 78.00 C 135.25 79.28 135.26 81.43 135.72 83.22 C 138.65 100.75 142.00 118.21 144.99 135.73 C 143.96 136.82 142.69 137.81 141.13 137.91 C 135.07 138.59 129.17 140.25 123.13 140.98 C 121.23 140.01 120.68 137.78 120.27 135.87 C 117.33 117.91 114.03 100.01 110.88 82.09 Z" />
<path fill="#007f46" opacity="1.00" d=" M 47.01 82.05 C 46.93 80.53 48.66 79.69 49.99 79.98 C 57.05 79.98 64.11 80.04 71.16 79.96 C 71.71 83.61 71.47 87.31 71.49 90.98 C 71.51 106.65 71.48 122.32 71.51 137.99 C 71.06 138.50 70.18 139.51 69.73 140.01 C 62.38 139.59 54.84 140.85 47.61 139.33 C 47.24 137.22 46.93 135.09 46.98 132.95 C 47.04 115.98 46.96 99.01 47.01 82.05 Z" />
<path fill="#007f46" opacity="1.00" d=" M 78.00 80.00 C 86.00 80.00 94.00 80.00 102.00 80.00 C 102.01 99.32 101.98 118.65 102.02 137.97 C 101.33 138.65 100.65 139.33 99.97 140.01 C 93.97 139.97 87.98 140.04 81.98 140.01 C 80.57 140.07 79.28 139.43 77.97 139.02 C 78.04 119.35 77.98 99.67 78.00 80.00 Z" />
</g>
</svg>
