<?xml version="1.0" encoding="UTF-8" ?>
<!DOCTYPE svg PUBLIC "-//W3C//DTD SVG 1.1//EN" "http://www.w3.org/Graphics/SVG/1.1/DTD/svg11.dtd">
<svg width="192pt" height="192pt" viewBox="0 0 192 192" version="1.1" xmlns="http://www.w3.org/2000/svg">
<g id="#007f46ff">
<path fill="#007f46" opacity="1.00" d=" M 48.31 47.07 C 52.84 46.93 57.38 46.91 61.90 47.08 C 64.94 49.43 65.97 53.55 67.39 56.98 C 91.62 57.02 115.86 57.01 140.09 56.98 C 143.07 56.48 145.30 60.24 144.83 62.78 C 139.10 71.89 134.33 81.52 128.90 90.79 C 126.91 95.69 123.11 101.14 117.19 100.89 C 105.21 101.21 93.22 100.82 81.24 101.08 C 79.87 104.26 77.69 107.14 77.13 110.62 C 81.41 111.25 85.75 110.92 90.05 111.00 C 104.60 111.06 119.16 110.89 133.71 111.07 C 135.84 112.32 134.83 115.06 135.04 117.07 C 135.29 118.37 134.44 120.09 132.97 119.99 C 113.03 120.02 93.08 119.99 73.13 120.00 C 70.69 118.39 68.61 116.29 66.98 113.86 C 67.09 110.98 66.59 107.82 68.14 105.23 C 70.36 101.50 72.78 97.89 74.75 94.02 C 72.81 90.24 70.74 86.50 69.35 82.47 C 66.92 77.04 63.92 71.88 61.50 66.44 C 60.35 63.01 58.62 59.82 56.96 56.62 C 53.63 56.40 50.27 56.74 46.98 56.15 C 47.55 53.21 45.64 49.15 48.31 47.07 Z" />
<path fill="#007f46" opacity="1.00" d=" M 71.89 126.69 C 74.54 125.56 77.86 125.13 80.48 126.53 C 83.44 128.81 86.56 132.02 86.08 136.09 C 86.01 139.77 83.12 142.67 79.85 143.95 C 75.75 146.45 70.37 143.76 68.12 139.93 C 66.51 137.65 67.02 134.75 67.04 132.14 C 68.57 130.26 69.47 127.62 71.89 126.69 Z" />
<path fill="#007f46" opacity="1.00" d=" M 116.06 132.09 C 117.81 129.52 119.49 126.40 122.93 125.98 C 130.14 123.61 137.70 132.58 134.24 139.28 C 132.73 142.47 129.23 143.98 126.07 145.02 C 122.46 144.96 118.93 143.07 117.11 139.90 C 115.49 137.62 116.02 134.70 116.06 132.09 Z" />
</g>
</svg>
