<?xml version="1.0" encoding="UTF-8" ?>
<!DOCTYPE svg PUBLIC "-//W3C//DTD SVG 1.1//EN" "http://www.w3.org/Graphics/SVG/1.1/DTD/svg11.dtd">
<svg width="192pt" height="192pt" viewBox="0 0 192 192" version="1.1" xmlns="http://www.w3.org/2000/svg">
<g id="#007f46ff">
<path fill="#007f46" opacity="1.00" d=" M 89.55 48.57 C 101.59 46.47 113.94 50.41 123.94 57.07 C 140.51 68.84 148.42 91.88 141.38 111.14 C 139.04 117.11 136.23 123.09 131.79 127.83 C 123.31 137.43 110.78 143.12 98.07 143.97 C 87.15 144.45 76.39 140.68 67.48 134.52 C 56.33 126.32 49.31 113.03 48.15 99.31 C 47.19 88.00 51.12 76.73 57.49 67.48 C 65.05 57.22 76.97 50.34 89.55 48.57 M 111.94 73.08 C 106.74 75.03 102.09 78.17 96.89 80.10 C 92.96 81.61 89.31 83.71 85.54 85.54 C 81.39 93.22 78.41 101.44 74.26 109.12 C 72.49 114.36 69.28 118.97 67.72 124.27 C 71.87 123.26 75.36 120.70 79.32 119.21 C 84.80 117.25 89.67 113.94 95.11 111.90 C 99.03 110.39 102.69 108.29 106.46 106.46 C 108.31 102.67 110.42 98.99 111.93 95.04 C 113.97 89.62 117.25 84.78 119.21 79.33 C 120.70 75.37 123.26 71.87 124.28 67.72 C 119.88 68.82 116.18 71.59 111.94 73.08 Z" />
<path fill="#007f46" opacity="1.00" d=" M 90.96 94.03 C 91.97 93.00 92.99 91.98 94.02 90.97 C 95.33 90.97 96.65 90.97 97.97 90.97 C 99.00 91.97 100.02 92.98 101.03 94.01 C 101.03 95.33 101.03 96.65 101.04 97.97 C 100.03 99.00 99.01 100.02 97.98 101.03 C 96.66 101.03 95.34 101.03 94.03 101.03 C 93.00 100.03 91.98 99.02 90.97 98.00 C 90.97 96.67 90.97 95.35 90.96 94.03 Z" />
</g>
</svg>
