<?xml version="1.0" encoding="UTF-8" ?>
<!DOCTYPE svg PUBLIC "-//W3C//DTD SVG 1.1//EN" "http://www.w3.org/Graphics/SVG/1.1/DTD/svg11.dtd">
<svg width="192pt" height="192pt" viewBox="0 0 192 192" version="1.1" xmlns="http://www.w3.org/2000/svg">
<g id="#007f46ff">
<path fill="#007f46" opacity="1.00" d=" M 89.57 47.58 C 104.49 45.16 119.68 51.43 130.62 61.44 C 139.18 70.86 144.85 83.12 145.05 95.97 C 144.83 108.80 139.28 121.19 130.58 130.50 C 126.41 133.81 122.39 137.44 117.47 139.61 C 111.20 143.12 104.01 144.38 96.94 145.04 C 85.55 144.86 74.06 141.08 65.33 133.61 C 59.50 129.67 55.60 123.57 52.37 117.44 C 45.71 104.92 45.31 89.38 51.39 76.56 C 53.89 71.01 57.39 65.94 61.42 61.40 C 69.31 54.39 78.97 48.95 89.57 47.58 M 73.67 63.72 C 64.77 69.58 59.11 79.55 57.17 89.88 C 57.00 95.55 56.39 101.45 58.31 106.90 C 60.40 113.38 63.80 119.50 68.66 124.31 C 76.07 131.08 85.92 135.23 96.00 135.35 C 110.79 135.15 125.60 126.38 131.46 112.54 C 135.35 105.30 135.54 96.88 134.68 88.90 C 132.50 79.18 127.25 69.79 118.88 64.11 C 112.00 59.44 103.81 56.50 95.42 56.79 C 87.64 56.68 80.14 59.57 73.67 63.72 Z" />
<path fill="#007f46" opacity="1.00" d=" M 91.67 71.45 C 93.93 71.49 96.19 71.51 98.46 71.55 C 98.81 80.07 97.96 88.74 98.85 97.17 C 105.70 101.94 113.18 105.80 120.23 110.29 C 119.12 112.31 117.94 114.28 116.72 116.24 C 108.94 111.84 101.45 106.96 93.80 102.35 C 92.67 101.52 90.92 100.71 91.02 99.06 C 90.91 92.04 91.08 85.02 90.96 78.01 C 90.89 75.80 91.03 73.58 91.67 71.45 Z" />
</g>
</svg>
