<?xml version="1.0" encoding="UTF-8" ?>
<!DOCTYPE svg PUBLIC "-//W3C//DTD SVG 1.1//EN" "http://www.w3.org/Graphics/SVG/1.1/DTD/svg11.dtd">
<svg width="192pt" height="192pt" viewBox="0 0 192 192" version="1.1" xmlns="http://www.w3.org/2000/svg">
<g id="#007f46ff">
<path fill="#007f46" opacity="1.00" d=" M 67.35 61.22 C 79.43 51.33 96.65 48.73 111.38 53.51 C 128.21 59.04 141.76 74.38 144.19 92.07 C 147.18 107.04 140.78 122.60 130.47 133.37 C 127.19 135.38 125.05 139.16 121.13 140.06 C 118.81 138.30 118.02 135.29 116.27 133.05 C 123.60 128.20 130.07 121.64 132.91 113.14 C 137.73 101.60 135.44 88.26 129.07 77.80 C 122.42 68.63 112.08 61.86 100.66 60.78 C 90.51 59.47 80.08 62.90 72.09 69.14 C 69.56 71.56 66.99 73.96 64.69 76.61 C 59.99 84.22 56.76 93.11 57.62 102.16 C 58.45 111.39 62.24 120.58 69.07 126.98 C 71.31 129.38 74.26 130.91 76.73 133.05 C 75.09 135.46 73.89 138.18 71.85 140.31 C 57.88 132.79 49.14 117.35 48.17 101.68 C 47.38 86.16 54.79 70.42 67.35 61.22 Z" />
<path fill="#007f46" opacity="1.00" d=" M 76.04 79.04 C 82.02 73.79 89.77 69.98 97.91 70.68 C 105.08 70.76 111.65 74.48 116.96 79.04 C 120.60 83.23 123.54 88.18 124.85 93.61 C 125.44 99.59 125.72 106.02 122.63 111.43 C 120.72 116.35 116.48 119.69 112.79 123.23 C 111.52 124.65 110.20 122.36 109.49 121.46 C 108.58 119.98 107.88 118.39 107.12 116.83 C 111.69 112.75 115.83 107.51 116.01 101.10 C 116.56 95.35 113.93 89.93 110.33 85.63 C 107.29 83.58 104.22 81.29 100.48 80.79 C 94.17 79.01 87.64 81.80 82.68 85.63 C 79.36 89.67 76.70 94.60 76.97 99.98 C 76.72 106.77 80.97 112.55 85.87 116.79 C 84.68 119.47 83.45 122.27 80.98 124.03 C 78.42 121.55 75.81 119.11 73.39 116.51 C 67.97 109.76 66.69 100.63 68.46 92.32 C 70.00 87.42 72.64 82.89 76.04 79.04 Z" />
<path fill="#007f46" opacity="1.00" d=" M 93.41 90.43 C 99.76 87.85 107.23 94.45 106.00 101.04 C 104.99 106.25 98.96 110.40 93.79 108.42 C 89.18 107.12 85.85 102.01 87.12 97.26 C 88.11 94.24 90.54 91.74 93.41 90.43 Z" />
</g>
</svg>
