<?xml version="1.0" encoding="UTF-8" ?>
<!DOCTYPE svg PUBLIC "-//W3C//DTD SVG 1.1//EN" "http://www.w3.org/Graphics/SVG/1.1/DTD/svg11.dtd">
<svg width="192pt" height="192pt" viewBox="0 0 192 192" version="1.1" xmlns="http://www.w3.org/2000/svg">
<g id="#007f46ff">
<path fill="#007f46" opacity="1.00" d=" M 85.12 51.71 C 87.92 50.82 90.79 50.19 93.65 49.55 C 96.48 49.98 99.27 50.69 101.79 52.08 C 103.64 53.22 105.85 52.38 107.88 52.62 C 110.51 53.71 112.53 55.80 113.92 58.24 C 115.47 62.67 116.94 67.26 116.49 72.01 C 116.11 74.05 117.07 75.82 118.40 77.28 C 118.94 82.08 118.76 88.53 113.64 90.79 C 113.15 93.90 111.89 96.80 110.93 99.79 C 107.62 104.20 102.62 107.84 97.06 108.52 C 92.00 109.31 87.57 106.21 83.92 103.12 C 80.48 100.20 78.90 95.69 78.39 91.33 C 77.16 90.19 75.92 89.07 74.67 87.97 C 73.28 83.86 72.62 79.07 74.71 75.08 C 75.43 69.59 75.27 63.81 77.85 58.72 C 79.19 55.44 82.37 53.65 85.12 51.71 Z" />
<path fill="#007f46" opacity="1.00" d=" M 75.57 116.45 C 78.41 114.74 78.97 110.74 81.97 109.25 C 86.46 112.64 89.96 117.19 94.14 120.97 C 94.85 121.92 96.40 122.34 97.31 121.45 C 101.67 117.41 105.64 112.96 110.03 108.95 C 112.50 110.90 113.64 113.98 115.89 116.10 C 122.61 119.37 129.94 121.17 136.80 124.13 C 143.10 127.66 142.64 135.84 144.12 142.00 C 134.07 142.15 124.00 141.61 113.98 142.48 C 94.98 142.54 75.98 142.47 56.99 142.51 C 53.97 142.56 50.96 142.54 47.96 142.20 C 49.57 136.39 48.78 128.89 54.05 124.89 C 60.94 121.40 68.49 119.48 75.57 116.45 Z" />
</g>
</svg>
