<?xml version="1.0" encoding="UTF-8" ?>
<!DOCTYPE svg PUBLIC "-//W3C//DTD SVG 1.1//EN" "http://www.w3.org/Graphics/SVG/1.1/DTD/svg11.dtd">
<svg width="192pt" height="192pt" viewBox="0 0 192 192" version="1.1" xmlns="http://www.w3.org/2000/svg">
<g id="#007f46ff">
<path fill="#007f46" opacity="1.00" d=" M 86.96 58.97 C 86.03 53.96 88.31 47.97 93.83 47.01 C 102.64 47.05 111.71 48.91 119.27 53.63 C 123.00 55.79 126.29 58.63 129.58 61.39 C 136.74 69.45 142.30 79.36 143.38 90.25 C 144.70 95.90 143.49 101.66 142.40 107.23 C 140.41 116.55 134.88 124.64 128.54 131.57 C 120.19 138.59 110.02 143.89 98.99 144.69 C 85.97 145.63 72.55 141.11 62.96 132.16 C 55.74 125.43 50.17 116.61 48.25 106.86 C 47.21 103.45 50.05 100.41 52.53 98.48 C 56.54 95.25 63.04 97.93 64.65 102.56 C 66.73 107.78 68.45 113.41 72.55 117.48 C 78.41 123.36 86.54 127.52 95.00 127.02 C 102.83 127.59 110.53 124.32 116.40 119.27 C 128.51 108.21 129.44 87.43 118.69 75.14 C 115.08 71.02 110.24 67.84 104.95 66.32 C 100.85 64.68 96.33 64.99 92.12 63.77 C 90.02 62.67 88.61 60.63 86.96 58.97 Z" />
</g>
</svg>
