<?xml version="1.0" encoding="UTF-8" ?>
<!DOCTYPE svg PUBLIC "-//W3C//DTD SVG 1.1//EN" "http://www.w3.org/Graphics/SVG/1.1/DTD/svg11.dtd">
<svg width="192pt" height="192pt" viewBox="0 0 192 192" version="1.1" xmlns="http://www.w3.org/2000/svg">
<g id="#007f46ff">
<path fill="#007f46" opacity="1.00" d=" M 50.90 50.94 C 53.03 49.63 55.30 48.00 57.90 47.99 C 83.27 48.01 108.63 48.01 134.00 47.98 C 139.30 48.19 143.80 52.70 144.02 57.99 C 143.98 76.67 144.02 95.35 143.99 114.02 C 144.13 119.33 139.37 124.75 133.94 124.50 C 111.79 124.54 89.63 124.41 67.48 124.56 C 63.85 126.35 61.57 129.99 58.56 132.60 C 54.99 135.75 52.19 139.90 48.02 142.28 C 47.96 114.85 48.04 87.42 47.98 59.99 C 47.82 56.74 49.00 53.54 50.90 50.94 Z" />
</g>
</svg>
