<?xml version="1.0" encoding="UTF-8" ?>
<!DOCTYPE svg PUBLIC "-//W3C//DTD SVG 1.1//EN" "http://www.w3.org/Graphics/SVG/1.1/DTD/svg11.dtd">
<svg width="192pt" height="192pt" viewBox="0 0 192 192" version="1.1" xmlns="http://www.w3.org/2000/svg">
<g id="#007f46ff">
<path fill="#007f46" opacity="1.00" d=" M 95.03 49.06 C 97.10 48.43 99.22 46.20 101.45 47.38 C 105.36 48.66 106.31 53.15 107.59 56.54 C 111.98 72.63 115.98 88.87 122.34 104.33 C 123.34 103.73 124.71 103.52 125.36 102.46 C 128.61 97.40 129.74 91.27 133.29 86.38 C 136.36 81.34 145.55 84.93 144.90 90.59 C 141.12 99.27 136.21 107.38 131.91 115.79 C 130.22 121.81 128.34 128.12 123.81 132.69 C 119.07 137.23 113.65 141.34 107.29 143.27 C 102.41 144.74 97.25 143.82 92.37 142.81 C 85.30 140.18 79.69 134.77 74.91 129.10 C 64.89 119.49 57.57 107.61 49.25 96.60 C 47.87 94.55 46.06 91.99 47.42 89.47 C 48.35 86.27 51.76 84.89 54.83 84.83 C 62.52 91.31 67.27 100.56 74.61 107.39 C 75.25 107.59 76.53 108.00 77.17 108.20 C 76.80 105.83 75.59 103.77 74.19 101.87 C 68.56 93.44 62.68 85.18 56.94 76.83 C 54.92 74.02 52.64 70.22 54.74 66.81 C 56.12 64.17 59.28 63.79 61.94 63.87 C 68.39 69.98 72.70 77.87 77.92 84.98 C 80.81 88.83 83.27 92.99 86.06 96.90 C 86.89 98.27 88.63 97.65 89.91 97.74 C 88.55 92.18 85.20 87.39 82.44 82.45 C 79.63 76.73 76.25 71.33 73.34 65.67 C 71.23 61.51 67.01 57.11 69.13 52.15 C 69.82 50.84 71.04 49.92 72.04 48.86 C 75.21 48.70 78.74 49.66 80.45 52.55 C 85.81 61.40 90.31 70.71 95.59 79.60 C 98.19 84.05 99.52 89.37 103.47 92.92 C 103.67 92.32 104.05 91.12 104.24 90.52 C 102.45 82.11 98.96 74.19 96.91 65.85 C 95.45 60.47 91.52 54.45 95.03 49.06 Z" />
</g>
</svg>
