<?xml version="1.0" encoding="UTF-8" ?>
<!DOCTYPE svg PUBLIC "-//W3C//DTD SVG 1.1//EN" "http://www.w3.org/Graphics/SVG/1.1/DTD/svg11.dtd">
<svg width="192pt" height="192pt" viewBox="0 0 192 192" version="1.1" xmlns="http://www.w3.org/2000/svg">
<g id="#007f46ff">
<path fill="#007f46" opacity="1.00" d=" M 92.40 57.38 C 98.82 50.87 108.10 46.94 117.30 48.13 C 124.37 49.30 131.24 52.55 136.10 57.91 C 141.36 63.94 144.59 71.98 143.99 80.05 C 143.07 89.76 137.44 99.12 128.81 103.86 C 121.39 108.30 112.23 109.07 104.12 106.18 C 100.72 106.86 98.67 110.41 96.04 112.51 C 95.75 116.39 97.02 120.89 94.09 124.09 C 91.35 126.66 87.47 125.96 84.06 126.05 C 83.97 129.60 84.74 134.00 81.55 136.49 C 78.55 139.00 74.54 137.51 71.06 138.24 C 68.64 140.17 66.83 143.09 63.66 143.90 C 60.75 144.15 57.83 143.98 54.92 144.01 C 51.15 144.20 47.78 140.79 47.98 137.03 C 48.02 134.14 47.85 131.24 48.10 128.36 C 49.06 124.97 52.12 122.89 54.42 120.43 C 64.86 109.87 75.54 99.53 85.84 88.84 C 85.49 85.23 83.95 81.76 83.94 78.07 C 84.38 70.49 87.09 62.92 92.40 57.38 M 116.12 63.18 C 114.38 65.18 110.72 66.80 111.24 69.82 C 114.02 74.24 117.77 77.98 122.19 80.76 C 124.12 81.53 125.21 79.49 126.46 78.45 C 127.51 77.21 129.52 76.11 128.76 74.18 C 125.97 69.76 122.23 66.02 117.81 63.23 C 117.39 63.22 116.54 63.19 116.12 63.18 Z" />
</g>
</svg>
