<?xml version="1.0" encoding="UTF-8" ?>
<!DOCTYPE svg PUBLIC "-//W3C//DTD SVG 1.1//EN" "http://www.w3.org/Graphics/SVG/1.1/DTD/svg11.dtd">
<svg width="192pt" height="192pt" viewBox="0 0 192 192" version="1.1" xmlns="http://www.w3.org/2000/svg">
<g id="#007f46ff">
<path fill="#007f46" opacity="1.00" d=" M 91.34 47.29 C 95.59 45.97 99.88 47.53 103.96 48.72 C 106.94 51.48 110.65 54.46 110.48 58.97 C 110.46 75.37 110.60 91.79 110.41 108.19 C 107.51 117.07 96.02 121.26 87.87 117.00 C 83.98 114.29 80.23 110.30 80.23 105.26 C 79.70 94.53 80.13 83.76 80.00 73.01 C 80.64 67.58 80.57 62.10 80.46 56.64 C 82.54 52.20 86.27 48.04 91.34 47.29 Z" />
<path fill="#007f46" opacity="1.00" d=" M 113.97 92.93 C 116.14 92.54 118.42 91.72 120.56 92.76 C 120.50 98.76 120.37 104.83 118.99 110.70 C 117.45 115.36 114.46 119.65 110.27 122.30 C 106.77 124.64 102.63 125.68 98.66 126.90 C 98.42 130.76 98.51 134.64 98.45 138.51 C 102.31 138.63 106.16 138.65 110.01 138.51 C 113.03 138.24 112.70 141.94 112.41 143.92 C 112.03 146.01 109.46 145.35 107.98 145.53 C 99.64 145.48 91.30 145.48 82.97 145.53 C 81.50 145.35 78.93 145.99 78.60 143.91 C 78.45 142.13 77.81 138.78 80.39 138.59 C 84.43 138.30 88.49 138.58 92.55 138.55 C 92.49 134.67 92.58 130.78 92.34 126.90 C 86.14 125.09 79.35 123.13 75.40 117.61 C 71.36 113.03 71.56 106.70 70.61 101.04 C 70.51 98.41 70.02 95.57 71.05 93.07 C 73.00 92.02 75.34 92.66 77.46 92.53 C 77.64 98.68 76.77 105.02 79.17 110.88 C 80.37 115.56 84.47 118.61 88.74 120.34 C 90.85 120.56 92.89 121.13 94.97 121.53 C 97.91 121.44 100.74 120.50 103.59 119.83 C 108.01 118.09 111.66 114.39 112.78 109.70 C 114.09 104.23 114.02 98.53 113.97 92.93 Z" />
</g>
</svg>
