<?xml version="1.0" encoding="UTF-8" ?>
<!DOCTYPE svg PUBLIC "-//W3C//DTD SVG 1.1//EN" "http://www.w3.org/Graphics/SVG/1.1/DTD/svg11.dtd">
<svg width="192pt" height="192pt" viewBox="0 0 192 192" version="1.1" xmlns="http://www.w3.org/2000/svg">
<g id="#007f46ff">
<path fill="#007f46" opacity="1.00" d=" M 47.44 56.94 C 49.47 53.46 53.64 50.96 56.06 47.47 C 57.57 47.25 57.89 49.28 59.05 49.91 C 70.74 61.58 82.43 73.26 94.09 84.95 C 94.80 85.86 95.76 86.16 96.96 85.86 C 108.79 74.10 120.55 62.26 132.37 50.48 C 133.28 49.50 134.39 48.67 135.04 47.48 C 138.48 49.39 141.02 53.58 144.44 56.04 L 144.55 56.93 C 132.45 68.29 120.97 80.39 109.12 92.04 C 107.87 93.56 105.42 94.63 106.16 96.98 C 118.96 109.63 131.44 122.67 144.49 135.03 L 144.50 135.96 C 141.42 138.56 138.45 141.46 135.91 144.60 C 134.45 144.54 134.05 142.78 132.93 142.08 C 120.94 130.12 108.99 118.11 96.99 106.16 C 95.79 105.84 94.83 106.12 94.12 107.02 C 81.79 119.57 69.02 131.74 56.94 144.50 C 53.51 142.65 50.97 138.33 47.49 135.95 C 47.23 134.43 49.31 134.08 49.94 132.91 C 61.59 121.25 73.24 109.58 84.92 97.94 C 85.86 97.21 86.16 96.24 85.84 95.02 C 74.06 83.18 62.23 71.40 50.43 59.58 C 49.46 58.67 48.64 57.57 47.44 56.94 Z" />
</g>
</svg>
