<?xml version="1.0" encoding="UTF-8" ?>
<!DOCTYPE svg PUBLIC "-//W3C//DTD SVG 1.1//EN" "http://www.w3.org/Graphics/SVG/1.1/DTD/svg11.dtd">
<svg width="192pt" height="192pt" viewBox="0 0 192 192" version="1.1" xmlns="http://www.w3.org/2000/svg">
<g id="#007f46ff">
<path fill="#007f46" opacity="1.00" d=" M 48.14 79.64 C 49.09 63.78 62.72 49.76 78.51 48.30 C 94.80 46.14 111.52 57.72 115.39 73.68 C 117.87 82.84 116.03 92.93 110.90 100.85 C 110.24 101.83 109.58 103.46 110.61 104.42 C 112.70 106.56 114.70 108.83 117.05 110.68 C 119.55 110.22 122.52 109.14 124.67 111.13 C 130.18 116.36 135.40 121.89 140.86 127.19 C 142.42 128.74 144.40 130.54 144.03 132.99 C 142.66 138.26 138.32 142.59 133.08 144.02 C 130.58 144.45 128.73 142.42 127.16 140.83 C 121.88 135.39 116.36 130.17 111.14 124.68 C 109.18 122.51 110.05 119.43 110.81 116.95 C 108.60 114.85 106.60 112.55 104.30 110.55 C 103.31 109.46 101.82 110.47 100.77 110.89 C 97.83 112.27 95.07 114.06 91.97 115.07 C 83.07 117.49 73.25 116.51 65.21 111.88 C 54.07 105.53 47.19 92.39 48.14 79.64 M 77.45 55.60 C 66.84 57.45 57.97 65.98 55.79 76.55 C 53.96 82.94 55.72 89.72 58.54 95.54 C 63.28 104.24 73.20 109.57 82.99 109.49 C 96.01 109.26 107.87 98.64 109.21 85.64 C 110.58 74.78 104.75 63.17 94.89 58.21 C 89.47 55.80 83.37 53.96 77.45 55.60 Z" />
</g>
</svg>
