<?xml version="1.0" encoding="UTF-8" ?>
<!DOCTYPE svg PUBLIC "-//W3C//DTD SVG 1.1//EN" "http://www.w3.org/Graphics/SVG/1.1/DTD/svg11.dtd">
<svg width="192pt" height="192pt" viewBox="0 0 192 192" version="1.1" xmlns="http://www.w3.org/2000/svg">
<g id="#007f46ff">
<path fill="#007f46" opacity="1.00" d=" M 85.27 48.07 C 92.82 47.86 100.37 48.07 107.92 48.00 C 108.55 53.13 109.30 58.25 110.39 63.31 C 113.42 64.94 116.01 67.33 119.17 68.73 C 123.94 67.47 127.89 64.03 132.70 62.76 C 136.55 69.40 140.56 75.98 144.77 82.40 C 141.33 86.08 136.82 88.60 133.53 92.41 C 132.59 95.44 132.93 98.79 133.25 101.91 C 136.40 105.67 141.16 107.69 144.73 111.05 C 140.69 117.49 136.86 124.06 132.95 130.58 C 128.62 129.15 124.42 127.00 120.01 126.03 C 116.38 127.41 112.63 129.09 109.88 131.89 C 108.86 135.90 108.78 140.14 107.95 144.22 C 100.39 144.46 92.84 145.35 85.28 144.92 C 82.20 140.95 84.61 134.53 81.70 130.33 C 78.98 128.61 76.07 127.14 73.05 126.04 C 68.20 126.44 64.18 129.97 59.26 130.15 C 55.70 123.23 50.96 117.01 47.31 110.15 C 51.17 107.65 54.86 104.89 58.66 102.30 C 59.41 98.62 61.05 93.39 57.30 90.83 C 53.95 88.16 50.82 85.22 47.25 82.83 C 51.29 76.17 55.26 69.42 60.02 63.24 C 64.58 64.59 68.56 67.33 73.10 68.76 C 76.57 65.88 82.90 64.52 82.82 59.05 C 83.72 55.48 82.84 50.99 85.27 48.07 M 89.39 78.63 C 78.50 81.86 73.11 95.67 78.53 105.54 C 81.23 111.15 86.89 114.83 92.92 115.88 C 99.29 116.65 106.12 114.44 110.31 109.47 C 113.83 105.53 115.32 100.07 114.97 94.86 C 114.16 88.70 110.35 83.19 105.15 79.88 C 100.27 77.66 94.52 76.54 89.39 78.63 Z" />
</g>
</svg>
