<?xml version="1.0" encoding="UTF-8" ?>
<!DOCTYPE svg PUBLIC "-//W3C//DTD SVG 1.1//EN" "http://www.w3.org/Graphics/SVG/1.1/DTD/svg11.dtd">
<svg width="192pt" height="192pt" viewBox="0 0 192 192" version="1.1" xmlns="http://www.w3.org/2000/svg">
<g id="#007f46ff">
<path fill="#007f46" opacity="1.00" d=" M 127.90 57.55 C 130.47 56.73 133.14 54.68 135.91 55.91 C 138.69 57.11 141.88 57.73 144.08 59.95 C 143.91 84.31 144.01 108.67 144.04 133.03 C 143.90 134.72 144.60 136.97 142.69 137.92 C 137.14 138.13 131.56 137.98 126.01 137.99 C 124.53 138.06 123.71 136.35 123.97 135.06 C 124.04 110.36 123.97 85.67 124.01 60.98 C 123.91 58.86 126.30 58.12 127.90 57.55 Z" />
<path fill="#007f46" opacity="1.00" d=" M 81.28 74.05 C 81.71 73.89 82.58 73.56 83.01 73.39 C 86.37 75.03 90.61 76.07 92.90 79.14 C 93.08 98.31 93.04 117.52 92.92 136.69 C 92.62 137.00 92.02 137.61 91.71 137.92 C 86.17 138.13 80.61 137.98 75.06 137.99 C 73.56 138.09 72.70 136.37 72.97 135.05 C 73.10 116.41 72.84 97.76 73.10 79.14 C 74.88 76.37 78.56 75.67 81.28 74.05 Z" />
<path fill="#007f46" opacity="1.00" d=" M 100.08 93.10 C 102.65 91.38 105.44 90.01 108.00 88.27 C 110.92 90.33 114.30 91.69 117.04 94.01 C 118.35 94.90 117.94 96.60 118.04 97.94 C 117.89 110.86 118.15 123.78 117.92 136.70 C 117.62 137.00 117.01 137.61 116.71 137.92 C 111.17 138.13 105.60 137.98 100.05 137.99 C 98.52 138.07 97.68 136.32 97.97 134.98 C 98.04 121.98 97.96 108.97 98.01 95.97 C 97.85 94.61 99.18 93.82 100.08 93.10 Z" />
<path fill="#007f46" opacity="1.00" d=" M 56.21 105.09 C 56.66 104.91 57.57 104.57 58.02 104.39 C 61.15 105.63 64.23 107.09 67.04 108.94 C 68.37 109.89 67.94 111.64 68.04 113.02 C 67.89 120.92 68.16 128.82 67.92 136.71 C 67.62 137.01 67.01 137.62 66.71 137.92 C 61.16 138.13 55.61 137.98 50.06 137.99 C 48.55 138.09 47.69 136.35 47.97 135.03 C 48.10 126.73 47.83 118.42 48.10 110.13 C 49.88 107.39 53.50 106.67 56.21 105.09 Z" />
</g>
</svg>
