<?xml version="1.0" encoding="UTF-8" ?>
<!DOCTYPE svg PUBLIC "-//W3C//DTD SVG 1.1//EN" "http://www.w3.org/Graphics/SVG/1.1/DTD/svg11.dtd">
<svg width="192pt" height="192pt" viewBox="0 0 192 192" version="1.1" xmlns="http://www.w3.org/2000/svg">
<g id="#007f46ff">
<path fill="#007f46" opacity="1.00" d=" M 57.99 54.90 C 57.98 50.75 61.86 46.91 66.02 46.99 C 79.34 46.99 92.66 47.02 105.98 46.98 C 114.68 55.30 123.01 64.00 131.61 72.42 C 132.66 73.62 134.14 74.74 134.39 76.42 C 134.91 83.62 135.47 90.88 134.65 98.09 C 133.88 111.59 136.18 125.13 134.38 138.60 C 133.05 142.32 129.10 145.44 125.01 145.03 C 105.32 144.96 85.63 145.01 65.94 145.01 C 61.79 145.04 57.96 141.20 57.99 137.05 C 58.01 109.67 58.00 82.29 57.99 54.90 M 70.02 89.59 C 70.43 90.33 71.24 91.81 71.65 92.55 C 88.12 93.03 104.69 93.51 121.12 92.20 C 121.23 91.42 121.44 89.87 121.54 89.10 C 107.70 88.89 93.86 89.05 80.02 89.00 C 76.68 89.06 73.29 88.71 70.02 89.59 M 71.61 100.08 C 71.60 100.79 71.57 102.20 71.56 102.90 C 88.04 103.06 104.52 103.06 120.99 102.90 C 120.97 102.19 120.95 100.78 120.93 100.07 C 104.49 99.97 88.05 99.94 71.61 100.08 M 71.43 113.55 C 73.22 114.13 75.13 113.97 76.99 114.01 C 91.64 113.95 106.30 114.09 120.96 113.93 C 120.96 112.64 120.96 111.36 120.96 110.07 C 104.96 109.99 88.94 109.89 72.94 110.11 C 70.88 109.81 70.80 112.20 71.43 113.55 M 71.11 120.64 C 71.10 121.47 71.08 123.13 71.07 123.96 C 80.71 124.01 90.34 124.06 99.98 123.92 C 99.95 123.10 99.89 121.46 99.87 120.64 C 90.31 119.74 80.67 119.74 71.11 120.64 Z" />
</g>
</svg>
