<?xml version="1.0" encoding="UTF-8" ?>
<!DOCTYPE svg PUBLIC "-//W3C//DTD SVG 1.1//EN" "http://www.w3.org/Graphics/SVG/1.1/DTD/svg11.dtd">
<svg width="192pt" height="192pt" viewBox="0 0 192 192" version="1.1" xmlns="http://www.w3.org/2000/svg">
<g id="#007f46ff">
<path fill="#007f46" opacity="1.00" d=" M 51.23 48.95 C 55.47 48.25 59.78 48.53 64.06 48.51 C 85.06 48.50 106.06 48.51 127.07 48.49 C 129.04 48.26 130.97 49.36 131.91 51.09 C 132.18 54.61 131.94 58.14 132.01 61.67 C 134.97 62.53 138.19 63.31 140.32 65.72 C 143.18 68.36 142.41 72.55 142.97 76.02 C 143.23 81.27 142.62 87.67 138.15 91.14 C 131.55 94.15 124.02 92.67 116.99 92.99 C 110.03 91.98 103.03 93.06 96.06 93.25 C 92.52 95.33 94.44 100.23 94.13 103.56 C 95.55 104.57 96.85 105.74 98.06 107.00 C 97.97 118.64 97.95 130.29 98.08 141.93 C 94.61 144.28 90.10 143.64 86.18 143.16 C 83.74 142.82 83.53 139.96 83.51 138.01 C 83.46 131.01 83.53 124.00 83.52 117.00 C 83.61 113.59 82.27 110.04 83.79 106.78 C 84.32 105.03 86.03 104.21 87.44 103.28 C 87.79 98.47 87.40 92.74 91.32 89.20 C 94.39 86.98 98.39 86.97 102.01 86.60 C 108.00 86.39 114.02 86.36 120.00 86.94 C 125.21 86.87 130.68 87.70 135.63 85.62 C 136.82 82.57 136.54 79.25 136.90 76.05 C 137.27 72.70 136.05 68.21 132.11 67.76 C 131.97 71.50 131.99 75.23 132.02 78.97 C 131.33 79.65 130.65 80.33 129.96 81.02 C 103.67 81.01 77.37 80.94 51.09 81.08 C 50.12 78.82 48.63 76.59 48.96 74.02 C 49.93 66.38 49.35 58.68 49.50 51.00 C 49.93 50.49 50.79 49.46 51.23 48.95 Z" />
</g>
</svg>
