<?xml version="1.0" encoding="UTF-8" ?>
<!DOCTYPE svg PUBLIC "-//W3C//DTD SVG 1.1//EN" "http://www.w3.org/Graphics/SVG/1.1/DTD/svg11.dtd">
<svg width="192pt" height="192pt" viewBox="0 0 192 192" version="1.1" xmlns="http://www.w3.org/2000/svg">
<g id="#007f46ff">
<path fill="#007f46" opacity="1.00" d=" M 72.89 52.76 C 85.55 47.49 100.00 46.38 113.12 50.61 C 117.93 52.15 122.89 53.91 126.63 57.46 C 125.98 58.00 124.69 59.07 124.04 59.61 C 119.60 58.58 115.77 55.91 111.34 54.82 C 106.40 53.07 101.16 53.01 96.00 52.73 C 90.84 53.01 85.60 53.08 80.67 54.81 C 75.80 56.00 71.63 59.16 66.63 59.88 C 64.48 55.58 70.08 54.25 72.89 52.76 Z" />
<path fill="#007f46" opacity="1.00" d=" M 87.46 60.50 C 102.42 58.14 118.37 62.17 130.00 71.97 C 133.51 75.13 137.05 78.48 139.14 82.79 C 138.40 83.68 137.60 84.49 136.72 85.22 C 133.87 83.50 132.39 80.32 129.98 78.10 C 113.67 61.24 84.54 59.88 66.24 74.30 C 62.08 77.23 59.31 81.58 55.79 85.16 C 54.55 84.75 53.65 83.76 52.83 82.81 C 60.04 70.47 73.58 62.74 87.46 60.50 Z" />
<path fill="#007f46" opacity="1.00" d=" M 77.01 75.93 C 89.01 69.45 104.46 69.73 116.15 76.78 C 125.66 82.00 132.29 91.66 134.61 102.16 C 135.51 107.18 135.62 112.87 132.09 116.97 C 126.94 124.59 114.09 124.59 108.92 116.99 C 106.05 113.77 106.02 109.40 105.34 105.40 C 102.62 98.68 92.49 97.13 87.94 102.85 C 84.76 107.44 85.73 113.65 87.53 118.60 C 90.06 126.93 96.51 133.85 104.43 137.34 C 107.36 138.65 111.58 138.77 112.48 142.53 C 111.76 142.91 110.32 143.66 109.60 144.04 C 103.39 141.91 97.22 139.20 92.40 134.61 C 86.14 128.43 81.74 120.18 81.34 111.27 C 79.87 102.85 87.48 94.43 95.96 94.92 C 102.03 94.42 107.38 98.91 109.77 104.19 C 110.84 107.75 109.85 112.31 113.00 114.97 C 117.82 120.64 128.60 118.35 130.27 110.98 C 131.33 103.69 128.57 96.40 124.66 90.35 C 119.57 83.08 111.37 78.48 102.85 76.48 C 92.44 74.69 81.08 77.00 72.97 84.00 C 65.02 90.09 60.93 100.23 61.06 110.09 C 61.55 116.24 63.23 122.20 64.78 128.15 C 63.57 128.52 62.37 128.89 61.16 129.25 C 57.01 121.10 56.49 111.71 57.12 102.74 C 58.90 91.29 66.78 81.17 77.01 75.93 Z" />
<path fill="#007f46" opacity="1.00" d=" M 77.92 89.90 C 87.68 80.71 104.30 80.71 114.07 89.89 C 119.90 94.58 122.77 101.97 123.30 109.29 C 121.91 110.16 120.43 110.89 118.75 110.83 C 118.40 105.13 117.04 99.23 112.92 95.01 C 103.93 84.34 84.88 85.43 77.30 97.22 C 72.11 104.28 73.31 113.66 75.57 121.57 C 77.67 129.02 83.17 134.66 87.87 140.54 C 87.26 141.24 86.05 142.63 85.44 143.33 C 76.81 136.27 70.55 126.00 69.46 114.79 C 67.69 105.79 70.71 95.78 77.92 89.90 Z" />
<path fill="#007f46" opacity="1.00" d=" M 93.66 108.11 C 93.67 105.51 96.74 106.99 97.88 107.83 C 97.69 115.95 102.56 123.39 109.43 127.39 C 114.30 129.69 119.75 129.46 124.96 128.99 C 127.55 128.98 127.67 132.60 125.24 133.18 C 110.02 137.88 92.24 124.14 93.66 108.11 Z" />
</g>
</svg>
